M48
;Layer_Color=9474304
;FILE_FORMAT=4:3
METRIC,LZ
;TYPE=PLATED
T1F00S00C0.711
T2F00S00C0.800
T3F00S00C1.000
T4F00S00C3.000
%
T01
X000762Y0007112
X001016Y0007874
X001143Y0006604
X001397
X001524Y0007874
X00127Y0005334
X0013462Y0021336
T02
X0014478Y0003302
X0016002Y0004572
X0024638Y0003556
X0027178Y0004826
Y0006858
Y0002032
X0029972
X0029718Y000381
X0038608Y000127
X004191
X003429Y0014986
X0033041Y0017526
X0026753Y0018713
X002413Y0018796
X002343Y0021144
X002143Y0021176
X001943Y0021208
X001743Y002124
X001543Y0021272
X001543Y002413
X001343
X001143
X0007366Y0023114
X001743Y002413
X001943
X002143
X002343
X0039116Y0022352
X003937Y0027686
X0037084Y0029718
X0034798
X0032766
X0029972Y0024638
X002343Y002613
X002143
X001943
X001743
X001543
X001343
X001143
X001743Y0029876
X001943Y0029846
X002143Y0029878
X002343Y002991
T03
X00456Y001047
X0045Y002063
T04
X004595Y0004
X000405
Y0027
X004595
M30
