G04 Layer_Physical_Order=2*
G04 Layer_Color=16711680*
%FSLAX43Y43*%
%MOMM*%
G71*
G01*
G75*
%ADD18C,0.300*%
%ADD19C,1.500*%
%ADD20R,1.500X1.500*%
%ADD21C,1.000*%
%ADD22C,1.270*%
%ADD23C,5.000*%
%ADD24R,1.100X1.000*%
%ADD25R,4.000X2.500*%
%ADD26R,3.250X2.150*%
%ADD27R,0.950X2.150*%
G36*
X49643Y357D02*
X42360D01*
X42335Y484D01*
X42358Y493D01*
X42544Y636D01*
X42687Y822D01*
X42776Y1038D01*
X42790Y1143D01*
X41030D01*
X41044Y1038D01*
X41133Y822D01*
X41276Y636D01*
X41462Y493D01*
X41485Y484D01*
X41460Y357D01*
X39162D01*
X39119Y484D01*
X39275Y603D01*
X39425Y798D01*
X39519Y1026D01*
X39551Y1270D01*
X39519Y1514D01*
X39425Y1742D01*
X39275Y1937D01*
X39080Y2087D01*
X39067Y2092D01*
Y3366D01*
X39440Y3740D01*
X39540Y3888D01*
X39575Y4064D01*
Y21530D01*
X39588Y21535D01*
X39783Y21685D01*
X39933Y21880D01*
X40027Y22108D01*
X40059Y22352D01*
X40027Y22596D01*
X39933Y22824D01*
X39783Y23019D01*
X39588Y23169D01*
X39360Y23263D01*
X39116Y23295D01*
X38872Y23263D01*
X38644Y23169D01*
X38449Y23019D01*
X38299Y22824D01*
X38205Y22596D01*
X38173Y22352D01*
X38205Y22108D01*
X38299Y21880D01*
X38449Y21685D01*
X38644Y21535D01*
X38657Y21530D01*
Y4254D01*
X38284Y3880D01*
X38184Y3732D01*
X38149Y3556D01*
Y2092D01*
X38136Y2087D01*
X37941Y1937D01*
X37791Y1742D01*
X37697Y1514D01*
X37665Y1270D01*
X37543Y1221D01*
X30648D01*
X30607Y1341D01*
X30639Y1365D01*
X30789Y1560D01*
X30883Y1788D01*
X30915Y2032D01*
X30883Y2276D01*
X30789Y2504D01*
X30639Y2699D01*
X30444Y2849D01*
X30292Y2912D01*
X30273Y3057D01*
X30385Y3143D01*
X30535Y3338D01*
X30629Y3566D01*
X30661Y3810D01*
X30629Y4054D01*
X30535Y4282D01*
X30385Y4477D01*
X30190Y4627D01*
X29962Y4721D01*
X29718Y4753D01*
X29474Y4721D01*
X29246Y4627D01*
X29051Y4477D01*
X28901Y4282D01*
X28807Y4054D01*
X28802Y4015D01*
X27854D01*
X27813Y4135D01*
X27845Y4159D01*
X27995Y4354D01*
X28089Y4582D01*
X28121Y4826D01*
X28089Y5070D01*
X28084Y5083D01*
X28772Y5772D01*
X28872Y5920D01*
X28907Y6096D01*
Y10732D01*
X33235Y15061D01*
X33349Y15004D01*
X33347Y14986D01*
X33379Y14742D01*
X33473Y14514D01*
X33623Y14319D01*
X33818Y14169D01*
X34046Y14075D01*
X34290Y14043D01*
X34534Y14075D01*
X34762Y14169D01*
X34957Y14319D01*
X35107Y14514D01*
X35201Y14742D01*
X35233Y14986D01*
X35201Y15230D01*
X35196Y15243D01*
X36519Y16567D01*
X36619Y16715D01*
X36654Y16891D01*
Y28639D01*
X36827Y28812D01*
X36840Y28807D01*
X37084Y28775D01*
X37328Y28807D01*
X37556Y28901D01*
X37751Y29051D01*
X37901Y29246D01*
X37995Y29474D01*
X38027Y29718D01*
X37995Y29962D01*
X37901Y30190D01*
X37751Y30385D01*
X37580Y30516D01*
X37599Y30617D01*
X37613Y30643D01*
X49643D01*
Y357D01*
D02*
G37*
G36*
X32251Y30617D02*
X32270Y30516D01*
X32099Y30385D01*
X31949Y30190D01*
X31855Y29962D01*
X31823Y29718D01*
X31855Y29474D01*
X31949Y29246D01*
X32099Y29051D01*
X32294Y28901D01*
X32307Y28896D01*
Y18796D01*
X32342Y18620D01*
X32442Y18472D01*
X32479Y18434D01*
X32468Y18265D01*
X32374Y18193D01*
X32224Y17998D01*
X32130Y17770D01*
X32098Y17526D01*
X32130Y17282D01*
X32224Y17054D01*
X32374Y16859D01*
X32569Y16709D01*
X32797Y16615D01*
X33041Y16583D01*
X33285Y16615D01*
X33332Y16635D01*
X33404Y16527D01*
X28124Y11246D01*
X28024Y11098D01*
X27989Y10922D01*
Y7534D01*
X27869Y7493D01*
X27845Y7525D01*
X27650Y7675D01*
X27422Y7769D01*
X27178Y7801D01*
X26934Y7769D01*
X26706Y7675D01*
X26511Y7525D01*
X26361Y7330D01*
X26267Y7102D01*
X26235Y6858D01*
X26267Y6614D01*
X26272Y6601D01*
X24956Y5285D01*
X23876D01*
X23700Y5250D01*
X23552Y5150D01*
X23432Y5031D01*
X16824D01*
X16819Y5044D01*
X16669Y5239D01*
X16474Y5389D01*
X16246Y5483D01*
X16002Y5515D01*
X15758Y5483D01*
X15675Y5449D01*
X15603Y5556D01*
X15938Y5891D01*
X20574D01*
X20750Y5926D01*
X20898Y6026D01*
X24454Y9582D01*
X24554Y9730D01*
X24589Y9906D01*
Y17252D01*
X25752D01*
X25927Y17287D01*
X26076Y17387D01*
X26497Y17807D01*
X26509Y17802D01*
X26753Y17770D01*
X26998Y17802D01*
X27225Y17896D01*
X27420Y18046D01*
X27570Y18241D01*
X27664Y18468D01*
X27697Y18713D01*
X27664Y18957D01*
X27570Y19184D01*
X27420Y19379D01*
X27225Y19529D01*
X26998Y19624D01*
X26753Y19656D01*
X26509Y19624D01*
X26282Y19529D01*
X26087Y19379D01*
X25937Y19184D01*
X25843Y18957D01*
X25810Y18713D01*
X25843Y18468D01*
X25848Y18456D01*
X25562Y18170D01*
X24914D01*
X24857Y18284D01*
X24907Y18348D01*
X24996Y18564D01*
X25010Y18669D01*
X23250D01*
X23264Y18564D01*
X23338Y18384D01*
X23231Y18312D01*
X22491Y19051D01*
X22343Y19151D01*
X22167Y19186D01*
X16187D01*
X16011Y19151D01*
X15863Y19051D01*
X15438Y18626D01*
X15338Y18478D01*
X15303Y18302D01*
Y17483D01*
X14987D01*
Y14733D01*
X16537D01*
Y17483D01*
X16221D01*
Y18112D01*
X16377Y18268D01*
X19861D01*
Y17758D01*
X18020D01*
Y14658D01*
X22620D01*
Y17459D01*
X22737Y17508D01*
X22859Y17387D01*
X23007Y17287D01*
X23183Y17252D01*
X23671D01*
Y10096D01*
X22691Y9116D01*
X22574Y9165D01*
Y10081D01*
X20320D01*
X18066D01*
Y8704D01*
X19861D01*
Y8318D01*
X19622Y8079D01*
X17716D01*
X17477Y8318D01*
Y10668D01*
X17442Y10844D01*
X17342Y10992D01*
X13921Y14414D01*
Y14779D01*
X14191D01*
Y15981D01*
X13462D01*
X12733D01*
Y14779D01*
X13003D01*
Y14224D01*
X13038Y14048D01*
X13138Y13900D01*
X15237Y11800D01*
X15188Y11683D01*
X11537D01*
Y8933D01*
X15148D01*
X15156Y8806D01*
X14996Y8785D01*
X14768Y8691D01*
X14573Y8541D01*
X14423Y8346D01*
X14418Y8333D01*
X10982D01*
X10977Y8346D01*
X10827Y8541D01*
X10632Y8691D01*
X10404Y8785D01*
X10160Y8817D01*
X9916Y8785D01*
X9688Y8691D01*
X9493Y8541D01*
X9343Y8346D01*
X9249Y8118D01*
X9217Y7874D01*
X9242Y7681D01*
X9148Y7570D01*
X9144Y7571D01*
X8442D01*
X8437Y7584D01*
X8287Y7779D01*
X8092Y7929D01*
X7864Y8023D01*
X7620Y8055D01*
X7376Y8023D01*
X7148Y7929D01*
X6953Y7779D01*
X6803Y7584D01*
X6709Y7356D01*
X6677Y7112D01*
X6709Y6868D01*
X6803Y6640D01*
X6953Y6445D01*
X7148Y6295D01*
X7376Y6201D01*
X7620Y6169D01*
X7864Y6201D01*
X8092Y6295D01*
X8287Y6445D01*
X8437Y6640D01*
X8442Y6653D01*
X8954D01*
X10598Y5010D01*
X10746Y4910D01*
X10922Y4875D01*
X11878D01*
X11883Y4862D01*
X12033Y4667D01*
X12228Y4517D01*
X12456Y4423D01*
X12700Y4391D01*
X12944Y4423D01*
X13172Y4517D01*
X13367Y4667D01*
X13517Y4862D01*
X13611Y5090D01*
X13643Y5334D01*
X13611Y5578D01*
X13593Y5621D01*
X13683Y5711D01*
X13726Y5693D01*
X13970Y5661D01*
X14214Y5693D01*
X14297Y5727D01*
X14369Y5620D01*
X14154Y5404D01*
X14054Y5256D01*
X14019Y5080D01*
Y4124D01*
X14006Y4119D01*
X13811Y3969D01*
X13661Y3774D01*
X13567Y3546D01*
X13535Y3302D01*
X13567Y3058D01*
X13661Y2830D01*
X13811Y2635D01*
X14006Y2485D01*
X14234Y2391D01*
X14478Y2359D01*
X14722Y2391D01*
X14735Y2396D01*
X16647Y484D01*
X16595Y357D01*
X357D01*
Y30643D01*
X16702D01*
X16743Y30516D01*
X16613Y30348D01*
X16519Y30120D01*
X16487Y29876D01*
X16519Y29632D01*
X16613Y29404D01*
X16763Y29209D01*
X16958Y29059D01*
X16971Y29054D01*
Y27076D01*
X16900Y27047D01*
X16681Y26879D01*
X16513Y26660D01*
X16493Y26613D01*
X16367D01*
X16347Y26660D01*
X16179Y26879D01*
X15960Y27047D01*
X15889Y27076D01*
Y27242D01*
X15854Y27418D01*
X15754Y27566D01*
X15310Y28010D01*
X15162Y28110D01*
X14986Y28145D01*
X10668D01*
X10492Y28110D01*
X10344Y28010D01*
X7042Y24708D01*
X6942Y24560D01*
X6907Y24384D01*
Y23936D01*
X6894Y23931D01*
X6699Y23781D01*
X6549Y23586D01*
X6455Y23358D01*
X6423Y23114D01*
X6455Y22870D01*
X6549Y22642D01*
X6699Y22447D01*
X6894Y22297D01*
X7122Y22203D01*
X7366Y22171D01*
X7610Y22203D01*
X7838Y22297D01*
X8033Y22447D01*
X8183Y22642D01*
X8277Y22870D01*
X8309Y23114D01*
X8277Y23358D01*
X8183Y23586D01*
X8033Y23781D01*
X7838Y23931D01*
X7825Y23936D01*
Y24194D01*
X10558Y26928D01*
X10654Y26844D01*
X10513Y26660D01*
X10407Y26404D01*
X10371Y26130D01*
X10407Y25856D01*
X10513Y25600D01*
X10681Y25381D01*
X10778Y25307D01*
X10735Y25180D01*
X10380D01*
Y24589D01*
X10160D01*
X9984Y24554D01*
X9836Y24454D01*
X9582Y24200D01*
X9482Y24052D01*
X9447Y23876D01*
Y19812D01*
Y19276D01*
X9482Y19100D01*
X9582Y18952D01*
X10703Y17830D01*
Y17483D01*
X10387D01*
Y14733D01*
X11937D01*
Y17483D01*
X11621D01*
Y18020D01*
X11586Y18196D01*
X11486Y18344D01*
X10936Y18895D01*
X10985Y19012D01*
X12192D01*
Y19012D01*
X12238Y19058D01*
X12915D01*
Y19812D01*
X13169D01*
Y19058D01*
X13671D01*
X13720Y18941D01*
X13138Y18358D01*
X13038Y18210D01*
X13003Y18034D01*
Y17437D01*
X12733D01*
Y16235D01*
X13462D01*
X14191D01*
Y17437D01*
X13921D01*
Y17844D01*
X14802Y18726D01*
X14902Y18874D01*
X14937Y19050D01*
Y19353D01*
X22924D01*
X23262Y19015D01*
X23250Y18923D01*
X24003D01*
Y19676D01*
X23911Y19664D01*
X23494Y20081D01*
X23539Y20215D01*
X23674Y20233D01*
X23902Y20327D01*
X24097Y20477D01*
X24247Y20672D01*
X24341Y20900D01*
X24373Y21144D01*
X24341Y21388D01*
X24247Y21616D01*
X24097Y21811D01*
X23902Y21961D01*
X23889Y21966D01*
Y23184D01*
X23960Y23213D01*
X24179Y23381D01*
X24347Y23600D01*
X24453Y23856D01*
X24489Y24130D01*
X24453Y24404D01*
X24347Y24660D01*
X24179Y24879D01*
X23960Y25047D01*
X23913Y25066D01*
Y25194D01*
X23960Y25213D01*
X24179Y25381D01*
X24347Y25600D01*
X24453Y25856D01*
X24489Y26130D01*
X24453Y26404D01*
X24347Y26660D01*
X24179Y26879D01*
X23960Y27047D01*
X23889Y27076D01*
Y29088D01*
X23902Y29093D01*
X24097Y29243D01*
X24247Y29438D01*
X24341Y29666D01*
X24373Y29910D01*
X24341Y30154D01*
X24247Y30382D01*
X24143Y30516D01*
X24206Y30643D01*
X32237D01*
X32251Y30617D01*
D02*
G37*
G36*
X12714Y23414D02*
X12924Y23253D01*
X12971Y23233D01*
Y22080D01*
X12828Y21970D01*
X12685Y21784D01*
X12596Y21568D01*
X12582Y21463D01*
X13462D01*
Y21209D01*
X12582D01*
X12596Y21104D01*
X12685Y20888D01*
X12828Y20702D01*
X12848Y20686D01*
X12808Y20566D01*
X12300D01*
X12192Y20612D01*
Y20612D01*
X12192Y20612D01*
X10492D01*
Y20271D01*
X10365D01*
Y22959D01*
X10380Y23080D01*
X12480D01*
Y23510D01*
X12607Y23553D01*
X12714Y23414D01*
D02*
G37*
%LPC*%
G36*
X39497Y28566D02*
Y27813D01*
X40250D01*
X40236Y27918D01*
X40147Y28134D01*
X40004Y28320D01*
X39818Y28463D01*
X39602Y28552D01*
X39497Y28566D01*
D02*
G37*
G36*
X39243D02*
X39138Y28552D01*
X38922Y28463D01*
X38736Y28320D01*
X38593Y28134D01*
X38504Y27918D01*
X38490Y27813D01*
X39243D01*
Y28566D01*
D02*
G37*
G36*
Y27559D02*
X38490D01*
X38504Y27454D01*
X38593Y27238D01*
X38736Y27052D01*
X38922Y26909D01*
X39138Y26820D01*
X39243Y26806D01*
Y27559D01*
D02*
G37*
G36*
X45950Y29809D02*
X45511Y29774D01*
X45082Y29671D01*
X44675Y29503D01*
X44299Y29272D01*
X43964Y28986D01*
X43678Y28651D01*
X43447Y28275D01*
X43279Y27868D01*
X43176Y27439D01*
X43141Y27000D01*
X43176Y26561D01*
X43279Y26132D01*
X43447Y25725D01*
X43678Y25349D01*
X43964Y25014D01*
X44299Y24728D01*
X44675Y24497D01*
X45082Y24329D01*
X45511Y24226D01*
X45950Y24191D01*
X46389Y24226D01*
X46818Y24329D01*
X47225Y24497D01*
X47601Y24728D01*
X47936Y25014D01*
X48222Y25349D01*
X48453Y25725D01*
X48621Y26132D01*
X48724Y26561D01*
X48759Y27000D01*
X48724Y27439D01*
X48621Y27868D01*
X48453Y28275D01*
X48222Y28651D01*
X47936Y28986D01*
X47601Y29272D01*
X47225Y29503D01*
X46818Y29671D01*
X46389Y29774D01*
X45950Y29809D01*
D02*
G37*
G36*
X45000Y21437D02*
X44791Y21409D01*
X44597Y21329D01*
X44429Y21201D01*
X44301Y21033D01*
X44221Y20839D01*
X44193Y20630D01*
X44221Y20421D01*
X44301Y20227D01*
X44429Y20059D01*
X44597Y19931D01*
X44791Y19851D01*
X45000Y19823D01*
X45209Y19851D01*
X45403Y19931D01*
X45571Y20059D01*
X45699Y20227D01*
X45779Y20421D01*
X45807Y20630D01*
X45779Y20839D01*
X45699Y21033D01*
X45571Y21201D01*
X45403Y21329D01*
X45209Y21409D01*
X45000Y21437D01*
D02*
G37*
G36*
X45600Y11277D02*
X45391Y11249D01*
X45197Y11169D01*
X45029Y11041D01*
X44901Y10873D01*
X44821Y10679D01*
X44793Y10470D01*
X44821Y10261D01*
X44901Y10067D01*
X45029Y9899D01*
X45197Y9771D01*
X45391Y9691D01*
X45600Y9663D01*
X45809Y9691D01*
X46003Y9771D01*
X46171Y9899D01*
X46299Y10067D01*
X46379Y10261D01*
X46407Y10470D01*
X46379Y10679D01*
X46299Y10873D01*
X46171Y11041D01*
X46003Y11169D01*
X45809Y11249D01*
X45600Y11277D01*
D02*
G37*
G36*
X40250Y27559D02*
X39497D01*
Y26806D01*
X39589Y26818D01*
X41451Y24956D01*
Y2039D01*
X41276Y1904D01*
X41133Y1718D01*
X41044Y1502D01*
X41030Y1397D01*
X42790D01*
X42776Y1502D01*
X42687Y1718D01*
X42544Y1904D01*
X42369Y2039D01*
Y25146D01*
X42334Y25322D01*
X42234Y25470D01*
X40238Y27467D01*
X40250Y27559D01*
D02*
G37*
G36*
X45950Y6809D02*
X45511Y6774D01*
X45082Y6671D01*
X44675Y6503D01*
X44299Y6272D01*
X43964Y5986D01*
X43678Y5651D01*
X43447Y5275D01*
X43279Y4868D01*
X43176Y4439D01*
X43141Y4000D01*
X43176Y3561D01*
X43279Y3132D01*
X43447Y2725D01*
X43678Y2349D01*
X43964Y2014D01*
X44299Y1728D01*
X44675Y1497D01*
X45082Y1329D01*
X45511Y1226D01*
X45950Y1191D01*
X46389Y1226D01*
X46818Y1329D01*
X47225Y1497D01*
X47601Y1728D01*
X47936Y2014D01*
X48222Y2349D01*
X48453Y2725D01*
X48621Y3132D01*
X48724Y3561D01*
X48759Y4000D01*
X48724Y4439D01*
X48621Y4868D01*
X48453Y5275D01*
X48222Y5651D01*
X47936Y5986D01*
X47601Y6272D01*
X47225Y6503D01*
X46818Y6671D01*
X46389Y6774D01*
X45950Y6809D01*
D02*
G37*
G36*
X30099Y25518D02*
Y24765D01*
X30852D01*
X30838Y24870D01*
X30749Y25086D01*
X30606Y25272D01*
X30420Y25415D01*
X30204Y25504D01*
X30099Y25518D01*
D02*
G37*
G36*
X29845D02*
X29740Y25504D01*
X29524Y25415D01*
X29338Y25272D01*
X29195Y25086D01*
X29106Y24870D01*
X29092Y24765D01*
X29845D01*
Y25518D01*
D02*
G37*
G36*
X4050Y29809D02*
X3611Y29774D01*
X3182Y29671D01*
X2775Y29503D01*
X2399Y29272D01*
X2064Y28986D01*
X1778Y28651D01*
X1547Y28275D01*
X1379Y27868D01*
X1276Y27439D01*
X1241Y27000D01*
X1276Y26561D01*
X1379Y26132D01*
X1547Y25725D01*
X1778Y25349D01*
X2064Y25014D01*
X2399Y24728D01*
X2775Y24497D01*
X3182Y24329D01*
X3611Y24226D01*
X4050Y24191D01*
X4489Y24226D01*
X4918Y24329D01*
X5325Y24497D01*
X5701Y24728D01*
X6036Y25014D01*
X6322Y25349D01*
X6553Y25725D01*
X6721Y26132D01*
X6824Y26561D01*
X6859Y27000D01*
X6824Y27439D01*
X6721Y27868D01*
X6553Y28275D01*
X6322Y28651D01*
X6036Y28986D01*
X5701Y29272D01*
X5325Y29503D01*
X4918Y29671D01*
X4489Y29774D01*
X4050Y29809D01*
D02*
G37*
G36*
X30852Y24511D02*
X30099D01*
Y23758D01*
X30204Y23772D01*
X30420Y23861D01*
X30606Y24004D01*
X30749Y24190D01*
X30838Y24406D01*
X30852Y24511D01*
D02*
G37*
G36*
X29845D02*
X29092D01*
X29104Y24419D01*
X24349Y19664D01*
X24257Y19676D01*
Y18923D01*
X25010D01*
X24998Y19015D01*
X29753Y23770D01*
X29845Y23758D01*
Y24511D01*
D02*
G37*
G36*
X22574Y11712D02*
X20447D01*
Y10335D01*
X22574D01*
Y11712D01*
D02*
G37*
G36*
X20193D02*
X18066D01*
Y10335D01*
X20193D01*
Y11712D01*
D02*
G37*
G36*
X4050Y6809D02*
X3611Y6774D01*
X3182Y6671D01*
X2775Y6503D01*
X2399Y6272D01*
X2064Y5986D01*
X1778Y5651D01*
X1547Y5275D01*
X1379Y4868D01*
X1276Y4439D01*
X1241Y4000D01*
X1276Y3561D01*
X1379Y3132D01*
X1547Y2725D01*
X1778Y2349D01*
X2064Y2014D01*
X2399Y1728D01*
X2775Y1497D01*
X3182Y1329D01*
X3611Y1226D01*
X4050Y1191D01*
X4489Y1226D01*
X4918Y1329D01*
X5325Y1497D01*
X5701Y1728D01*
X6036Y2014D01*
X6322Y2349D01*
X6553Y2725D01*
X6721Y3132D01*
X6824Y3561D01*
X6859Y4000D01*
X6824Y4439D01*
X6721Y4868D01*
X6553Y5275D01*
X6322Y5651D01*
X6036Y5986D01*
X5701Y6272D01*
X5325Y6503D01*
X4918Y6671D01*
X4489Y6774D01*
X4050Y6809D01*
D02*
G37*
%LPD*%
D18*
X25752Y17711D02*
X26753Y18713D01*
X22167Y18727D02*
X23183Y17711D01*
X20320Y18727D02*
X22167D01*
X20320Y16208D02*
Y18727D01*
X16187D02*
X20320D01*
X23114Y19812D02*
X24130Y18796D01*
X14478Y19812D02*
X23114D01*
X15762Y18302D02*
X16187Y18727D01*
X15762Y16108D02*
Y18302D01*
X23430Y21144D02*
Y24130D01*
X21430Y21176D02*
Y24130D01*
X19430Y21208D02*
Y24130D01*
X17430Y21240D02*
Y24130D01*
X15430Y21272D02*
Y24130D01*
X9906Y23876D02*
X10160Y24130D01*
X13430Y21368D02*
Y24130D01*
X23430Y26130D02*
Y29910D01*
X21430Y26130D02*
Y29878D01*
X19430Y26130D02*
Y29846D01*
X17430Y26130D02*
Y29876D01*
X17018Y8128D02*
Y10668D01*
X13462Y14224D02*
X17018Y10668D01*
X13462Y14224D02*
Y16108D01*
X17526Y7620D02*
X19812D01*
X17018Y8128D02*
X17526Y7620D01*
X19812D02*
X20320Y8128D01*
Y10208D01*
X13430Y24130D02*
Y26130D01*
X11430Y24130D02*
Y26130D01*
X10160Y24130D02*
X11430D01*
X14478Y19812D02*
Y20574D01*
Y19050D02*
Y19812D01*
X13462Y18034D02*
X14478Y19050D01*
X13462Y16108D02*
Y18034D01*
X13042Y19812D02*
X14478D01*
X9906D02*
X11342D01*
X11162Y16108D02*
Y18020D01*
X9906Y19276D02*
Y19812D01*
Y19276D02*
X11162Y18020D01*
X9906Y19812D02*
Y23876D01*
X11430Y6604D02*
X13970D01*
X10160Y7874D02*
X15240D01*
X7620Y7112D02*
X9144D01*
X10922Y5334D01*
X12330D01*
X12515Y5519D01*
X7366Y23114D02*
Y24384D01*
X10668Y27686D01*
X14986D01*
X15430Y27242D01*
Y26130D02*
Y27242D01*
X33020Y17547D02*
X33041Y17526D01*
X36195Y16891D02*
Y28829D01*
X37084Y29718D01*
X32766Y18796D02*
Y29718D01*
Y18796D02*
X33041Y18521D01*
Y17526D02*
Y18521D01*
X34290Y28194D02*
X34798Y28702D01*
Y29718D01*
X34290Y16764D02*
Y28194D01*
X27178Y4826D02*
X28448Y6096D01*
Y10922D01*
X34290Y16764D01*
Y14986D02*
X36195Y16891D01*
X27178Y2032D02*
X29972D01*
X29464Y3556D02*
X29718Y3810D01*
X24638Y3556D02*
X29464D01*
X25146Y4826D02*
X27178Y6858D01*
X16002Y4572D02*
X23622D01*
X23876Y4826D01*
X25146D01*
X24130Y9906D02*
Y17711D01*
X14478Y3302D02*
Y5080D01*
X23183Y17711D02*
X24130D01*
X25752D01*
X14478Y5080D02*
X15748Y6350D01*
X20574D01*
X24130Y9906D01*
X38354Y1270D02*
X38608D01*
X37846Y762D02*
X38354Y1270D01*
X17018Y762D02*
X37846D01*
X14478Y3302D02*
X17018Y762D01*
X39116Y4064D02*
Y22352D01*
X38608Y3556D02*
X39116Y4064D01*
X38608Y1270D02*
Y3556D01*
X39370Y27686D02*
X41910Y25146D01*
Y1270D02*
Y25146D01*
X24130Y18796D02*
X29972Y24638D01*
X13716Y21336D02*
X14478Y20574D01*
X13462Y21336D02*
X13716D01*
X13430Y21368D02*
X13462Y21336D01*
D19*
X23430Y26130D02*
D03*
Y24130D02*
D03*
X21430Y26130D02*
D03*
Y24130D02*
D03*
X19430Y26130D02*
D03*
Y24130D02*
D03*
X17430Y26130D02*
D03*
Y24130D02*
D03*
X15430Y26130D02*
D03*
Y24130D02*
D03*
X13430Y26130D02*
D03*
Y24130D02*
D03*
X11430Y26130D02*
D03*
D20*
Y24130D02*
D03*
D21*
X45600Y10470D02*
D03*
X45000Y20630D02*
D03*
D22*
X26753Y18713D02*
D03*
X24130Y18796D02*
D03*
X23430Y21144D02*
D03*
X21430Y21176D02*
D03*
X19430Y21208D02*
D03*
X17430Y21240D02*
D03*
X15430Y21272D02*
D03*
X23430Y29910D02*
D03*
X21430Y29878D02*
D03*
X19430Y29846D02*
D03*
X17430Y29876D02*
D03*
X15240Y7874D02*
D03*
X10160D02*
D03*
X13970Y6604D02*
D03*
X11430D02*
D03*
X12700Y5334D02*
D03*
X7620Y7112D02*
D03*
X27178Y6858D02*
D03*
X7366Y23114D02*
D03*
X33041Y17526D02*
D03*
X27178Y4826D02*
D03*
X37084Y29718D02*
D03*
X34798D02*
D03*
X32766D02*
D03*
X34290Y14986D02*
D03*
X27178Y2032D02*
D03*
X29972D02*
D03*
X29718Y3810D02*
D03*
X24638Y3556D02*
D03*
X16002Y4572D02*
D03*
X14478Y3302D02*
D03*
X38608Y1270D02*
D03*
X39116Y22352D02*
D03*
X39370Y27686D02*
D03*
X41910Y1270D02*
D03*
X29972Y24638D02*
D03*
X13462Y21336D02*
D03*
D23*
X45950Y4000D02*
D03*
Y27000D02*
D03*
X4050D02*
D03*
Y4000D02*
D03*
D24*
X13042Y19812D02*
D03*
X11342D02*
D03*
D25*
X20320Y10208D02*
D03*
Y16208D02*
D03*
D26*
X13462Y10308D02*
D03*
D27*
X15762Y16108D02*
D03*
X13462D02*
D03*
X11162D02*
D03*
M02*
