G04 Layer_Physical_Order=1*
G04 Layer_Color=255*
%FSLAX43Y43*%
%MOMM*%
G71*
G01*
G75*
%ADD10R,2.150X0.950*%
%ADD11R,2.150X3.250*%
%ADD12O,2.200X0.600*%
%ADD13R,1.000X1.100*%
%ADD14R,1.100X1.000*%
%ADD15R,6.000X1.100*%
%ADD16R,4.700X1.300*%
%ADD17R,0.737X2.794*%
%ADD18R,2.500X4.000*%
%ADD19C,0.300*%
%ADD20C,0.400*%
%ADD21C,1.000*%
%ADD22C,1.400*%
%ADD23C,1.500*%
%ADD24R,1.500X1.500*%
%ADD25R,1.500X1.500*%
%ADD26C,5.000*%
G36*
X21041Y26310D02*
Y24931D01*
X20914Y24906D01*
X20874Y25004D01*
X20713Y25213D01*
X20504Y25374D01*
X20261Y25474D01*
X20000Y25509D01*
X19739Y25474D01*
X19496Y25374D01*
X19287Y25213D01*
X19126Y25004D01*
X19026Y24761D01*
X18991Y24500D01*
X19026Y24239D01*
X19126Y23996D01*
X19287Y23787D01*
X19496Y23626D01*
X19541Y23608D01*
Y11500D01*
X19576Y11324D01*
X19676Y11176D01*
X21545Y9307D01*
X21526Y9261D01*
X21491Y9000D01*
X21526Y8739D01*
X21626Y8496D01*
X21787Y8287D01*
X21996Y8127D01*
X22094Y8086D01*
X22069Y7959D01*
X16392D01*
X16374Y8004D01*
X16213Y8213D01*
X16004Y8373D01*
X15761Y8474D01*
X15515Y8507D01*
X15484Y8535D01*
X15428Y8627D01*
X15474Y8739D01*
X15509Y9000D01*
X15474Y9261D01*
X15373Y9504D01*
X15213Y9713D01*
X15004Y9873D01*
X14761Y9974D01*
X14500Y10009D01*
X14239Y9974D01*
X13996Y9873D01*
X13787Y9713D01*
X13627Y9504D01*
X13526Y9261D01*
X13491Y9000D01*
X13526Y8739D01*
X13545Y8693D01*
X12810Y7959D01*
X9275D01*
Y8241D01*
X9700D01*
X9876Y8276D01*
X10024Y8376D01*
X10083Y8434D01*
X10200Y8385D01*
Y8300D01*
X11800D01*
Y10000D01*
X11800D01*
X11754Y10046D01*
Y10723D01*
X11000D01*
Y10850D01*
X10873D01*
Y11654D01*
X10246D01*
Y11309D01*
X9840D01*
X9824Y11324D01*
X9676Y11424D01*
X9500Y11459D01*
X9229D01*
Y11729D01*
X8027D01*
Y11000D01*
Y10271D01*
X9229D01*
Y10443D01*
X9262Y10471D01*
X9356Y10505D01*
X9474Y10426D01*
X9650Y10391D01*
X10246D01*
Y10108D01*
X10200Y10000D01*
X10200D01*
X10200Y10000D01*
Y9609D01*
X10150D01*
X9974Y9574D01*
X9826Y9474D01*
X9510Y9159D01*
X9275D01*
Y9475D01*
X6525D01*
Y9159D01*
X3475D01*
Y12925D01*
X969D01*
X897Y13052D01*
X974Y13239D01*
X1009Y13500D01*
X974Y13761D01*
X873Y14004D01*
X713Y14213D01*
X504Y14373D01*
X261Y14474D01*
X0Y14509D01*
X-261Y14474D01*
X-504Y14373D01*
X-713Y14213D01*
X-873Y14004D01*
X-904Y13930D01*
X-1042D01*
X-1083Y14030D01*
X-1251Y14249D01*
X-1470Y14417D01*
X-1517Y14436D01*
Y14564D01*
X-1470Y14583D01*
X-1251Y14751D01*
X-1083Y14970D01*
X-977Y15226D01*
X-941Y15500D01*
X-977Y15774D01*
X-1083Y16030D01*
X-1251Y16249D01*
X-1470Y16417D01*
X-1517Y16437D01*
Y16563D01*
X-1470Y16583D01*
X-1251Y16751D01*
X-1083Y16970D01*
X-977Y17226D01*
X-941Y17500D01*
X-977Y17774D01*
X-1083Y18030D01*
X-1251Y18249D01*
X-1470Y18417D01*
X-1517Y18437D01*
Y18563D01*
X-1470Y18583D01*
X-1251Y18751D01*
X-1083Y18970D01*
X-990Y19195D01*
X-897Y19219D01*
X-850Y19214D01*
X-824Y19176D01*
X676Y17676D01*
X824Y17576D01*
X1000Y17541D01*
X3657D01*
X3667Y17519D01*
X3820Y17320D01*
X4019Y17167D01*
X4041Y17157D01*
Y12500D01*
X4076Y12324D01*
X4176Y12176D01*
X5676Y10676D01*
X5824Y10576D01*
X6000Y10541D01*
X6571D01*
Y10271D01*
X7773D01*
Y11000D01*
Y11729D01*
X6571D01*
Y11459D01*
X6190D01*
X4959Y12690D01*
Y17157D01*
X4981Y17167D01*
X5127Y17279D01*
X5243Y17207D01*
X5241Y17200D01*
Y13800D01*
X5276Y13624D01*
X5376Y13476D01*
X5876Y12976D01*
X6024Y12876D01*
X6200Y12841D01*
X6525D01*
Y12525D01*
X9275D01*
Y14075D01*
X6525D01*
Y13759D01*
X6390D01*
X6159Y13990D01*
Y16921D01*
X6183Y16953D01*
X6282Y17020D01*
X6500Y16991D01*
X6761Y17026D01*
X7004Y17126D01*
X7213Y17287D01*
X7373Y17496D01*
X7392Y17541D01*
X10000D01*
X10176Y17576D01*
X10324Y17676D01*
X10824Y18176D01*
X10924Y18324D01*
X10959Y18500D01*
Y21000D01*
X10993Y21041D01*
X13500D01*
X13676Y21076D01*
X13824Y21176D01*
X20000Y27351D01*
X21041Y26310D01*
D02*
G37*
G36*
X59567Y433D02*
X-9567D01*
Y30567D01*
X21891D01*
X21904Y30440D01*
X21824Y30424D01*
X21676Y30324D01*
X19676Y28324D01*
X13310Y21959D01*
X9550D01*
Y23800D01*
X6450D01*
Y19200D01*
X9550D01*
Y21041D01*
X9810D01*
X10041Y20810D01*
Y18690D01*
X9810Y18459D01*
X7392D01*
X7373Y18504D01*
X7213Y18713D01*
X7004Y18874D01*
X6761Y18974D01*
X6500Y19009D01*
X6239Y18974D01*
X5996Y18874D01*
X5787Y18713D01*
X5627Y18504D01*
X5544Y18305D01*
X5408Y18300D01*
X5333Y18481D01*
X5180Y18680D01*
X4981Y18833D01*
X4749Y18929D01*
X4627Y18946D01*
Y18000D01*
X4373D01*
Y18946D01*
X4251Y18929D01*
X4019Y18833D01*
X3820Y18680D01*
X3667Y18481D01*
X3657Y18459D01*
X1190D01*
X530Y19119D01*
X582Y19246D01*
X1873D01*
Y21500D01*
Y23754D01*
X496D01*
Y21959D01*
X0D01*
X-176Y21924D01*
X-324Y21824D01*
X-824Y21324D01*
X-839Y21303D01*
X-961Y21349D01*
X-941Y21500D01*
X-977Y21774D01*
X-1083Y22030D01*
X-1251Y22249D01*
X-1470Y22417D01*
X-1726Y22523D01*
X-2000Y22559D01*
X-2274Y22523D01*
X-2530Y22417D01*
X-2749Y22249D01*
X-2917Y22030D01*
X-2937Y21983D01*
X-3063D01*
X-3083Y22030D01*
X-3251Y22249D01*
X-3470Y22417D01*
X-3726Y22523D01*
X-4000Y22559D01*
X-4274Y22523D01*
X-4530Y22417D01*
X-4749Y22249D01*
X-4917Y22030D01*
X-5023Y21774D01*
X-5059Y21500D01*
X-5023Y21226D01*
X-4917Y20970D01*
X-4749Y20751D01*
X-4530Y20583D01*
X-4483Y20563D01*
Y20437D01*
X-4530Y20417D01*
X-4749Y20249D01*
X-4917Y20030D01*
X-5023Y19774D01*
X-5059Y19500D01*
X-5023Y19226D01*
X-4917Y18970D01*
X-4749Y18751D01*
X-4530Y18583D01*
X-4483Y18563D01*
Y18437D01*
X-4530Y18417D01*
X-4749Y18249D01*
X-4917Y18030D01*
X-5023Y17774D01*
X-5059Y17500D01*
X-5023Y17226D01*
X-4917Y16970D01*
X-4749Y16751D01*
X-4530Y16583D01*
X-4483Y16563D01*
Y16437D01*
X-4530Y16417D01*
X-4749Y16249D01*
X-4917Y16030D01*
X-5023Y15774D01*
X-5059Y15500D01*
X-5023Y15226D01*
X-4917Y14970D01*
X-4749Y14751D01*
X-4530Y14583D01*
X-4483Y14564D01*
Y14436D01*
X-4530Y14417D01*
X-4749Y14249D01*
X-4917Y14030D01*
X-5023Y13774D01*
X-5059Y13500D01*
X-5023Y13226D01*
X-4917Y12970D01*
X-4749Y12751D01*
X-4530Y12583D01*
X-4435Y12544D01*
Y12406D01*
X-4506Y12377D01*
X-4716Y12216D01*
X-4877Y12006D01*
X-4978Y11762D01*
X-4996Y11627D01*
X-4000D01*
Y11373D01*
X-4996D01*
X-4978Y11238D01*
X-4877Y10994D01*
X-4716Y10784D01*
X-4506Y10623D01*
X-4435Y10594D01*
Y10456D01*
X-4530Y10417D01*
X-4749Y10249D01*
X-4917Y10030D01*
X-5023Y9774D01*
X-5059Y9500D01*
X-5023Y9226D01*
X-4917Y8970D01*
X-4749Y8751D01*
X-4530Y8583D01*
X-4274Y8477D01*
X-4000Y8441D01*
X-3726Y8477D01*
X-3470Y8583D01*
X-3251Y8751D01*
X-3177Y8848D01*
X-3050Y8805D01*
Y8450D01*
X-1365D01*
X-1316Y8333D01*
X-2824Y6824D01*
X-2924Y6676D01*
X-2959Y6500D01*
Y5700D01*
X-3300D01*
Y4127D01*
X-3300Y4000D01*
X-3300D01*
Y4000D01*
X-3300D01*
Y3609D01*
X-5110D01*
X-5200Y3699D01*
X-5200Y4000D01*
X-5246Y4108D01*
Y4723D01*
X-6000D01*
X-6754D01*
Y4108D01*
X-6800Y4000D01*
X-6800Y3938D01*
Y2300D01*
X-5200D01*
Y2691D01*
X-3300D01*
Y2300D01*
X-1700D01*
Y2691D01*
X-1350D01*
X-1174Y2726D01*
X-1026Y2826D01*
X1400Y5251D01*
X1508Y5179D01*
X1379Y4868D01*
X1276Y4439D01*
X1241Y4000D01*
X1276Y3561D01*
X1379Y3132D01*
X1547Y2725D01*
X1778Y2349D01*
X2064Y2014D01*
X2399Y1728D01*
X2775Y1497D01*
X3182Y1329D01*
X3611Y1226D01*
X4050Y1191D01*
X4489Y1226D01*
X4918Y1329D01*
X5325Y1497D01*
X5701Y1728D01*
X6036Y2014D01*
X6322Y2349D01*
X6553Y2725D01*
X6721Y3132D01*
X6824Y3561D01*
X6859Y4000D01*
X6824Y4439D01*
X6721Y4868D01*
X6553Y5275D01*
X6322Y5651D01*
X6036Y5986D01*
X5701Y6272D01*
X5325Y6503D01*
X4918Y6671D01*
X4489Y6774D01*
X4050Y6809D01*
X3611Y6774D01*
X3182Y6671D01*
X2871Y6542D01*
X2799Y6650D01*
X3190Y7041D01*
X13000D01*
X13176Y7076D01*
X13324Y7176D01*
X14193Y8045D01*
X14239Y8026D01*
X14485Y7993D01*
X14516Y7965D01*
X14572Y7873D01*
X14526Y7761D01*
X14491Y7500D01*
X14526Y7239D01*
X14627Y6996D01*
X14787Y6787D01*
X14996Y6627D01*
X15239Y6526D01*
X15500Y6491D01*
X15761Y6526D01*
X16004Y6627D01*
X16213Y6787D01*
X16374Y6996D01*
X16392Y7041D01*
X28000D01*
X28176Y7076D01*
X28324Y7176D01*
X29174Y8026D01*
X29274Y8174D01*
X29309Y8350D01*
Y16419D01*
X29436Y16444D01*
X29476Y16346D01*
X29637Y16137D01*
X29846Y15976D01*
X29891Y15958D01*
Y8650D01*
X29926Y8474D01*
X30026Y8326D01*
X32176Y6176D01*
X32324Y6076D01*
X32500Y6041D01*
X42500D01*
X42676Y6076D01*
X42824Y6176D01*
X43693Y7045D01*
X43739Y7026D01*
X44000Y6991D01*
X44261Y7026D01*
X44504Y7127D01*
X44713Y7287D01*
X44874Y7496D01*
X44974Y7739D01*
X45009Y8000D01*
X44974Y8261D01*
X44874Y8504D01*
X44713Y8713D01*
X44504Y8873D01*
X44261Y8974D01*
X44000Y9009D01*
X43739Y8974D01*
X43496Y8873D01*
X43287Y8713D01*
X43127Y8504D01*
X43108Y8459D01*
X42700D01*
Y8800D01*
X41000D01*
Y8800D01*
X40954Y8754D01*
X40554D01*
Y9636D01*
X41289D01*
X41384Y9573D01*
X41600Y9530D01*
X42273D01*
Y10095D01*
X42400D01*
Y10222D01*
X43740D01*
X43722Y10311D01*
X43599Y10494D01*
X43416Y10617D01*
X43291Y10642D01*
Y10771D01*
X43434Y10800D01*
X43517Y10855D01*
X44985D01*
X45180Y10894D01*
X45345Y11005D01*
X45521Y11180D01*
X47450D01*
Y10740D01*
X52750D01*
Y12640D01*
X47450D01*
Y12200D01*
X45310D01*
X45115Y12161D01*
X44950Y12050D01*
X44774Y11875D01*
X43517D01*
X43434Y11930D01*
X43409Y11935D01*
Y12065D01*
X43434Y12070D01*
X43517Y12125D01*
X44635D01*
X44830Y12164D01*
X44995Y12275D01*
X46441Y13720D01*
X47450D01*
Y13280D01*
X52750D01*
Y15180D01*
X47450D01*
Y14740D01*
X46337D01*
X46275Y14867D01*
X46374Y14996D01*
X46474Y15239D01*
X46509Y15500D01*
X46474Y15761D01*
X46374Y16004D01*
X46275Y16133D01*
X46337Y16260D01*
X47450D01*
Y15820D01*
X52750D01*
Y17720D01*
X47450D01*
Y17280D01*
X46441D01*
X45016Y18705D01*
X45046Y18792D01*
X45071Y18824D01*
X45190Y18800D01*
X47450D01*
Y18360D01*
X52750D01*
Y20260D01*
X47450D01*
Y19820D01*
X45920D01*
X45895Y19947D01*
X46099Y20032D01*
X46308Y20192D01*
X46468Y20401D01*
X46569Y20644D01*
X46604Y20905D01*
X46569Y21166D01*
X46468Y21409D01*
X46308Y21618D01*
X46099Y21778D01*
X46054Y21797D01*
Y22405D01*
X46019Y22581D01*
X45919Y22729D01*
X45324Y23324D01*
X45176Y23424D01*
X45000Y23459D01*
X42700D01*
Y23800D01*
X41062D01*
X41000Y23800D01*
X40892Y23754D01*
X40609D01*
Y29350D01*
X40574Y29526D01*
X40474Y29674D01*
X39824Y30324D01*
X39676Y30424D01*
X39596Y30440D01*
X39609Y30567D01*
X59567D01*
Y433D01*
D02*
G37*
G36*
X45664Y16615D02*
X45605Y16495D01*
X45500Y16509D01*
X45239Y16474D01*
X44996Y16374D01*
X44787Y16213D01*
X44626Y16004D01*
X44526Y15761D01*
X44491Y15500D01*
X44526Y15239D01*
X44545Y15193D01*
X43715Y14364D01*
X43593D01*
X43434Y14470D01*
X43200Y14517D01*
X41600D01*
X41366Y14470D01*
X41167Y14338D01*
X41035Y14139D01*
X40988Y13905D01*
X41035Y13671D01*
X41167Y13472D01*
X41366Y13340D01*
X41391Y13335D01*
Y13205D01*
X41366Y13200D01*
X41167Y13068D01*
X41035Y12869D01*
X40988Y12635D01*
X41035Y12401D01*
X41167Y12202D01*
X41366Y12070D01*
X41391Y12065D01*
Y11935D01*
X41366Y11930D01*
X41167Y11798D01*
X41035Y11599D01*
X40988Y11365D01*
X41035Y11131D01*
X41167Y10932D01*
X41366Y10800D01*
X41509Y10771D01*
Y10642D01*
X41384Y10617D01*
X41289Y10554D01*
X40554D01*
Y10905D01*
Y15500D01*
Y16636D01*
X41289D01*
X41384Y16573D01*
X41600Y16530D01*
X42273D01*
Y17095D01*
X42400D01*
Y17222D01*
X43740D01*
X43722Y17311D01*
X43599Y17494D01*
X43416Y17617D01*
X43291Y17642D01*
Y17771D01*
X43434Y17800D01*
X43517Y17855D01*
X44424D01*
X45664Y16615D01*
D02*
G37*
G36*
X39691Y29160D02*
Y23754D01*
X39346D01*
Y23127D01*
X40150D01*
Y22873D01*
X39346D01*
Y22246D01*
X39636D01*
Y17095D01*
Y15959D01*
X33693D01*
X33683Y15981D01*
X33530Y16180D01*
X33331Y16333D01*
X33099Y16429D01*
X32977Y16446D01*
Y15500D01*
X32723D01*
Y16446D01*
X32601Y16429D01*
X32369Y16333D01*
X32221Y16220D01*
X32094Y16282D01*
Y17906D01*
X36407D01*
X36566Y17800D01*
X36591Y17795D01*
Y17665D01*
X36566Y17660D01*
X36367Y17528D01*
X36235Y17329D01*
X36188Y17095D01*
X36235Y16861D01*
X36367Y16662D01*
X36566Y16530D01*
X36800Y16483D01*
X38400D01*
X38634Y16530D01*
X38833Y16662D01*
X38965Y16861D01*
X39012Y17095D01*
X38965Y17329D01*
X38833Y17528D01*
X38634Y17660D01*
X38609Y17665D01*
Y17795D01*
X38634Y17800D01*
X38833Y17932D01*
X38965Y18131D01*
X39012Y18365D01*
X38965Y18599D01*
X38833Y18798D01*
X38634Y18930D01*
X38609Y18935D01*
Y19065D01*
X38634Y19070D01*
X38833Y19202D01*
X38965Y19401D01*
X39012Y19635D01*
X38965Y19869D01*
X38833Y20068D01*
X38634Y20200D01*
X38609Y20205D01*
Y20335D01*
X38634Y20340D01*
X38833Y20472D01*
X38965Y20671D01*
X39012Y20905D01*
X38965Y21139D01*
X38833Y21338D01*
X38634Y21470D01*
X38400Y21517D01*
X36800D01*
X36566Y21470D01*
X36407Y21364D01*
X34892D01*
X34874Y21409D01*
X34713Y21618D01*
X34504Y21778D01*
X34261Y21879D01*
X34000Y21914D01*
X33739Y21879D01*
X33693Y21860D01*
X33459Y22095D01*
Y24500D01*
X33424Y24676D01*
X33324Y24824D01*
X32824Y25324D01*
X32824Y25324D01*
X32676Y25424D01*
X32500Y25459D01*
X32162D01*
Y26905D01*
X31540D01*
Y27159D01*
X32162D01*
Y28683D01*
X31999D01*
Y29350D01*
X32190Y29541D01*
X39310D01*
X39691Y29160D01*
D02*
G37*
G36*
X-904Y13070D02*
X-873Y12996D01*
X-713Y12787D01*
X-504Y12627D01*
X-459Y12608D01*
Y9190D01*
X-833Y8816D01*
X-950Y8865D01*
Y10550D01*
X-1380D01*
X-1423Y10677D01*
X-1284Y10784D01*
X-1123Y10994D01*
X-1022Y11238D01*
X-1004Y11373D01*
X-2000D01*
Y11627D01*
X-1004D01*
X-1022Y11762D01*
X-1123Y12006D01*
X-1284Y12216D01*
X-1494Y12377D01*
X-1565Y12406D01*
Y12544D01*
X-1470Y12583D01*
X-1251Y12751D01*
X-1083Y12970D01*
X-1042Y13070D01*
X-904D01*
D02*
G37*
G36*
X31176Y16098D02*
Y11365D01*
X31211Y11189D01*
X31311Y11041D01*
X31459Y10941D01*
X31635Y10906D01*
X36407D01*
X36566Y10800D01*
X36591Y10795D01*
Y10665D01*
X36566Y10660D01*
X36367Y10528D01*
X36235Y10329D01*
X36188Y10095D01*
X36235Y9861D01*
X36367Y9662D01*
X36566Y9530D01*
X36800Y9483D01*
X38400D01*
X38634Y9530D01*
X38833Y9662D01*
X38965Y9861D01*
X39012Y10095D01*
X38965Y10329D01*
X38833Y10528D01*
X38634Y10660D01*
X38609Y10665D01*
Y10795D01*
X38634Y10800D01*
X38833Y10932D01*
X38965Y11131D01*
X39012Y11365D01*
X38965Y11599D01*
X38833Y11798D01*
X38634Y11930D01*
X38609Y11935D01*
Y12065D01*
X38634Y12070D01*
X38833Y12202D01*
X38965Y12401D01*
X39012Y12635D01*
X38965Y12869D01*
X38833Y13068D01*
X38634Y13200D01*
X38609Y13205D01*
Y13335D01*
X38634Y13340D01*
X38833Y13472D01*
X38965Y13671D01*
X39012Y13905D01*
X38965Y14139D01*
X38833Y14338D01*
X38634Y14470D01*
X38400Y14517D01*
X36800D01*
X36566Y14470D01*
X36407Y14364D01*
X34892D01*
X34874Y14409D01*
X34713Y14618D01*
X34504Y14778D01*
X34261Y14879D01*
X34000Y14914D01*
X33838Y14892D01*
X33754Y15009D01*
X33770Y15041D01*
X39636D01*
Y10905D01*
X39636Y10905D01*
Y10095D01*
X39636Y10095D01*
Y8754D01*
X39346D01*
Y8127D01*
X40150D01*
Y8000D01*
X40277D01*
Y7246D01*
X40892D01*
X41000Y7200D01*
Y7200D01*
X41000Y7200D01*
X42385D01*
X42434Y7083D01*
X42310Y6959D01*
X32690D01*
X30809Y8840D01*
Y15958D01*
X30854Y15976D01*
X31049Y16126D01*
X31176Y16098D01*
D02*
G37*
%LPC*%
G36*
X11754Y11654D02*
X11127D01*
Y10977D01*
X11754D01*
Y11654D01*
D02*
G37*
G36*
X45950Y29809D02*
X45511Y29774D01*
X45082Y29671D01*
X44675Y29503D01*
X44299Y29272D01*
X43964Y28986D01*
X43678Y28651D01*
X43447Y28275D01*
X43279Y27868D01*
X43176Y27439D01*
X43141Y27000D01*
X43176Y26561D01*
X43279Y26132D01*
X43447Y25725D01*
X43678Y25349D01*
X43964Y25014D01*
X44299Y24728D01*
X44675Y24497D01*
X45082Y24329D01*
X45511Y24226D01*
X45950Y24191D01*
X46389Y24226D01*
X46818Y24329D01*
X47225Y24497D01*
X47601Y24728D01*
X47936Y25014D01*
X48222Y25349D01*
X48453Y25725D01*
X48621Y26132D01*
X48724Y26561D01*
X48759Y27000D01*
X48724Y27439D01*
X48621Y27868D01*
X48453Y28275D01*
X48222Y28651D01*
X47936Y28986D01*
X47601Y29272D01*
X47225Y29503D01*
X46818Y29671D01*
X46389Y29774D01*
X45950Y29809D01*
D02*
G37*
G36*
X4050D02*
X3611Y29774D01*
X3182Y29671D01*
X2775Y29503D01*
X2399Y29272D01*
X2064Y28986D01*
X1778Y28651D01*
X1547Y28275D01*
X1379Y27868D01*
X1276Y27439D01*
X1241Y27000D01*
X1276Y26561D01*
X1379Y26132D01*
X1547Y25725D01*
X1778Y25349D01*
X2064Y25014D01*
X2399Y24728D01*
X2775Y24497D01*
X3182Y24329D01*
X3611Y24226D01*
X4050Y24191D01*
X4489Y24226D01*
X4918Y24329D01*
X5325Y24497D01*
X5701Y24728D01*
X6036Y25014D01*
X6322Y25349D01*
X6553Y25725D01*
X6721Y26132D01*
X6824Y26561D01*
X6859Y27000D01*
X6824Y27439D01*
X6721Y27868D01*
X6553Y28275D01*
X6322Y28651D01*
X6036Y28986D01*
X5701Y29272D01*
X5325Y29503D01*
X4918Y29671D01*
X4489Y29774D01*
X4050Y29809D01*
D02*
G37*
G36*
X3504Y23754D02*
X2127D01*
Y21627D01*
X3504D01*
Y23754D01*
D02*
G37*
G36*
X58550Y22700D02*
X51950D01*
Y21000D01*
X54421D01*
X54505Y20873D01*
X54471Y20789D01*
X54443Y20580D01*
X54471Y20371D01*
X54551Y20177D01*
X54679Y20009D01*
X54847Y19881D01*
X55041Y19801D01*
X55250Y19773D01*
X55459Y19801D01*
X55653Y19881D01*
X55821Y20009D01*
X55949Y20177D01*
X56029Y20371D01*
X56057Y20580D01*
X56029Y20789D01*
X55995Y20873D01*
X56079Y21000D01*
X58550D01*
Y22700D01*
D02*
G37*
G36*
X3504Y21373D02*
X2127D01*
Y19246D01*
X3504D01*
Y21373D01*
D02*
G37*
G36*
X43740Y9968D02*
X42527D01*
Y9530D01*
X43200D01*
X43416Y9573D01*
X43599Y9696D01*
X43722Y9879D01*
X43740Y9968D01*
D02*
G37*
G36*
X55850Y11227D02*
X55641Y11199D01*
X55447Y11119D01*
X55279Y10991D01*
X55151Y10823D01*
X55071Y10629D01*
X55043Y10420D01*
X55071Y10211D01*
X55105Y10127D01*
X55021Y10000D01*
X51950D01*
Y8300D01*
X58550D01*
Y10000D01*
X56679D01*
X56595Y10127D01*
X56629Y10211D01*
X56657Y10420D01*
X56629Y10629D01*
X56549Y10823D01*
X56421Y10991D01*
X56253Y11119D01*
X56059Y11199D01*
X55850Y11227D01*
D02*
G37*
G36*
X-7373Y8446D02*
Y7627D01*
X-6554D01*
X-6571Y7749D01*
X-6667Y7981D01*
X-6820Y8180D01*
X-7019Y8333D01*
X-7251Y8429D01*
X-7373Y8446D01*
D02*
G37*
G36*
X-7627D02*
X-7749Y8429D01*
X-7981Y8333D01*
X-8180Y8180D01*
X-8333Y7981D01*
X-8429Y7749D01*
X-8446Y7627D01*
X-7627D01*
Y8446D01*
D02*
G37*
G36*
Y7373D02*
X-8446D01*
X-8429Y7251D01*
X-8333Y7019D01*
X-8180Y6820D01*
X-7981Y6667D01*
X-7749Y6571D01*
X-7627Y6554D01*
Y7373D01*
D02*
G37*
G36*
X24500Y5559D02*
X24226Y5523D01*
X23970Y5417D01*
X23751Y5249D01*
X23583Y5030D01*
X23563Y4983D01*
X23437D01*
X23417Y5030D01*
X23249Y5249D01*
X23030Y5417D01*
X22774Y5523D01*
X22500Y5559D01*
X22226Y5523D01*
X21970Y5417D01*
X21751Y5249D01*
X21583Y5030D01*
X21563Y4983D01*
X21437D01*
X21417Y5030D01*
X21249Y5249D01*
X21030Y5417D01*
X20774Y5523D01*
X20500Y5559D01*
X20226Y5523D01*
X19970Y5417D01*
X19751Y5249D01*
X19583Y5030D01*
X19563Y4983D01*
X19437D01*
X19417Y5030D01*
X19249Y5249D01*
X19030Y5417D01*
X18774Y5523D01*
X18500Y5559D01*
X18226Y5523D01*
X17970Y5417D01*
X17751Y5249D01*
X17583Y5030D01*
X17563Y4983D01*
X17437D01*
X17417Y5030D01*
X17249Y5249D01*
X17030Y5417D01*
X16774Y5523D01*
X16500Y5559D01*
X16226Y5523D01*
X15970Y5417D01*
X15751Y5249D01*
X15583Y5030D01*
X15544Y4935D01*
X15406D01*
X15377Y5006D01*
X15216Y5216D01*
X15006Y5377D01*
X14762Y5478D01*
X14627Y5496D01*
Y4500D01*
X14373D01*
Y5496D01*
X14238Y5478D01*
X13994Y5377D01*
X13784Y5216D01*
X13623Y5006D01*
X13594Y4935D01*
X13456D01*
X13417Y5030D01*
X13249Y5249D01*
X13030Y5417D01*
X12774Y5523D01*
X12500Y5559D01*
X12226Y5523D01*
X11970Y5417D01*
X11751Y5249D01*
X11583Y5030D01*
X11477Y4774D01*
X11441Y4500D01*
X11477Y4226D01*
X11583Y3970D01*
X11751Y3751D01*
X11848Y3677D01*
X11805Y3550D01*
X11450D01*
Y1450D01*
X13550D01*
Y1880D01*
X13677Y1923D01*
X13784Y1784D01*
X13994Y1623D01*
X14238Y1522D01*
X14373Y1504D01*
Y2500D01*
X14627D01*
Y1504D01*
X14762Y1522D01*
X15006Y1623D01*
X15216Y1784D01*
X15377Y1994D01*
X15406Y2065D01*
X15544D01*
X15583Y1970D01*
X15751Y1751D01*
X15970Y1583D01*
X16226Y1477D01*
X16500Y1441D01*
X16774Y1477D01*
X17030Y1583D01*
X17249Y1751D01*
X17417Y1970D01*
X17437Y2017D01*
X17563D01*
X17583Y1970D01*
X17751Y1751D01*
X17970Y1583D01*
X18226Y1477D01*
X18500Y1441D01*
X18774Y1477D01*
X19030Y1583D01*
X19249Y1751D01*
X19417Y1970D01*
X19437Y2017D01*
X19563D01*
X19583Y1970D01*
X19751Y1751D01*
X19970Y1583D01*
X20226Y1477D01*
X20500Y1441D01*
X20774Y1477D01*
X21030Y1583D01*
X21249Y1751D01*
X21417Y1970D01*
X21437Y2017D01*
X21563D01*
X21583Y1970D01*
X21751Y1751D01*
X21970Y1583D01*
X22226Y1477D01*
X22500Y1441D01*
X22774Y1477D01*
X23030Y1583D01*
X23249Y1751D01*
X23417Y1970D01*
X23437Y2017D01*
X23563D01*
X23583Y1970D01*
X23751Y1751D01*
X23970Y1583D01*
X24226Y1477D01*
X24500Y1441D01*
X24774Y1477D01*
X25030Y1583D01*
X25249Y1751D01*
X25417Y1970D01*
X25523Y2226D01*
X25559Y2500D01*
X25523Y2774D01*
X25417Y3030D01*
X25249Y3249D01*
X25030Y3417D01*
X24983Y3437D01*
Y3563D01*
X25030Y3583D01*
X25249Y3751D01*
X25417Y3970D01*
X25523Y4226D01*
X25559Y4500D01*
X25523Y4774D01*
X25417Y5030D01*
X25249Y5249D01*
X25030Y5417D01*
X24774Y5523D01*
X24500Y5559D01*
D02*
G37*
G36*
X-6554Y7373D02*
X-7373D01*
Y6554D01*
X-7251Y6571D01*
X-7229Y6580D01*
X-6459Y5810D01*
Y5654D01*
X-6754D01*
Y4977D01*
X-6000D01*
X-5246D01*
Y5654D01*
X-5541D01*
Y6000D01*
X-5576Y6176D01*
X-5676Y6324D01*
X-6580Y7229D01*
X-6571Y7251D01*
X-6554Y7373D01*
D02*
G37*
G36*
X45950Y6809D02*
X45511Y6774D01*
X45082Y6671D01*
X44675Y6503D01*
X44299Y6272D01*
X43964Y5986D01*
X43678Y5651D01*
X43447Y5275D01*
X43279Y4868D01*
X43176Y4439D01*
X43141Y4000D01*
X43176Y3561D01*
X43279Y3132D01*
X43447Y2725D01*
X43678Y2349D01*
X43964Y2014D01*
X44299Y1728D01*
X44675Y1497D01*
X45082Y1329D01*
X45511Y1226D01*
X45950Y1191D01*
X46389Y1226D01*
X46818Y1329D01*
X47225Y1497D01*
X47601Y1728D01*
X47936Y2014D01*
X48222Y2349D01*
X48453Y2725D01*
X48621Y3132D01*
X48724Y3561D01*
X48759Y4000D01*
X48724Y4439D01*
X48621Y4868D01*
X48453Y5275D01*
X48222Y5651D01*
X47936Y5986D01*
X47601Y6272D01*
X47225Y6503D01*
X46818Y6671D01*
X46389Y6774D01*
X45950Y6809D01*
D02*
G37*
G36*
X43740Y16968D02*
X42527D01*
Y16530D01*
X43200D01*
X43416Y16573D01*
X43599Y16696D01*
X43722Y16879D01*
X43740Y16968D01*
D02*
G37*
G36*
X34854Y26009D02*
X34593Y25974D01*
X34350Y25874D01*
X34141Y25713D01*
X33980Y25504D01*
X33880Y25261D01*
X33845Y25000D01*
X33880Y24739D01*
X33980Y24496D01*
X34141Y24287D01*
X34350Y24126D01*
X34593Y24026D01*
X34854Y23991D01*
X35115Y24026D01*
X35358Y24126D01*
X35567Y24287D01*
X35728Y24496D01*
X35828Y24739D01*
X35863Y25000D01*
X35828Y25261D01*
X35728Y25504D01*
X35567Y25713D01*
X35358Y25874D01*
X35115Y25974D01*
X34854Y26009D01*
D02*
G37*
G36*
X40023Y7873D02*
X39346D01*
Y7246D01*
X40023D01*
Y7873D01*
D02*
G37*
%LPD*%
D10*
X7900Y8700D02*
D03*
Y11000D02*
D03*
Y13300D02*
D03*
D11*
X2100Y11000D02*
D03*
D12*
X42400Y10095D02*
D03*
Y11365D02*
D03*
Y12635D02*
D03*
Y13905D02*
D03*
X37600Y10095D02*
D03*
Y11365D02*
D03*
Y12635D02*
D03*
Y13905D02*
D03*
X42400Y17095D02*
D03*
Y18365D02*
D03*
Y19635D02*
D03*
Y20905D02*
D03*
X37600Y17095D02*
D03*
Y18365D02*
D03*
Y19635D02*
D03*
Y20905D02*
D03*
D13*
X-6000Y4850D02*
D03*
Y3150D02*
D03*
X-2500Y3150D02*
D03*
Y4850D02*
D03*
X11000Y9150D02*
D03*
Y10850D02*
D03*
D14*
X28850Y18500D02*
D03*
X27150D02*
D03*
X41850Y23000D02*
D03*
X40150D02*
D03*
X41850Y8000D02*
D03*
X40150D02*
D03*
D15*
X55250Y9150D02*
D03*
Y21850D02*
D03*
D16*
X50100Y19310D02*
D03*
Y16770D02*
D03*
Y14230D02*
D03*
Y11690D02*
D03*
D17*
X31540Y27032D02*
D03*
Y22968D02*
D03*
X30270Y27032D02*
D03*
Y22968D02*
D03*
X29000Y27032D02*
D03*
Y22968D02*
D03*
X27730Y27032D02*
D03*
Y22968D02*
D03*
X26460Y27032D02*
D03*
Y22968D02*
D03*
D18*
X8000Y21500D02*
D03*
X2000D02*
D03*
D19*
X23000Y13500D02*
X27500Y9000D01*
X23000Y13500D02*
Y18300D01*
X21500Y12000D02*
X24500Y9000D01*
X21500Y12000D02*
Y20000D01*
X20000Y11500D02*
X22500Y9000D01*
X20000Y11500D02*
Y24500D01*
X21500Y22000D02*
X25000Y18500D01*
X20000Y28000D02*
X22000Y30000D01*
X13500Y21500D02*
X20000Y28000D01*
X21500Y26500D01*
Y22000D02*
Y26500D01*
X28850Y8350D02*
Y18500D01*
X28000Y7500D02*
X28850Y8350D01*
X15500Y7500D02*
X28000D01*
X10000Y21500D02*
X13500D01*
X32500Y6500D02*
X42500D01*
X30350Y8650D02*
X32500Y6500D01*
X30350Y8650D02*
Y16850D01*
X42500Y6500D02*
X44000Y8000D01*
X45595Y20905D02*
Y22405D01*
Y20905D02*
Y20905D01*
X45000Y23000D02*
X45595Y22405D01*
X41850Y23000D02*
X45000D01*
X40150D02*
Y29350D01*
X39500Y30000D02*
X40150Y29350D01*
X32000Y30000D02*
X39500D01*
X33000Y21905D02*
X34000Y20905D01*
X33000Y21905D02*
Y24500D01*
X32500Y25000D02*
X33000Y24500D01*
X32500Y25000D02*
Y25000D01*
X30500D02*
X32500D01*
X30270Y24770D02*
X30500Y25000D01*
X30270Y22968D02*
Y24770D01*
X40095Y15500D02*
Y17095D01*
Y10905D02*
Y15500D01*
X32850D02*
X40095D01*
X41850Y8000D02*
X44000D01*
X42400Y13905D02*
X43905D01*
X45500Y15500D01*
X42400Y20905D02*
X45595D01*
X40095Y22945D02*
X40150Y23000D01*
X40095Y17095D02*
Y22945D01*
Y10095D02*
Y10905D01*
Y8055D02*
Y10095D01*
X40095D02*
X40095D01*
Y8055D02*
X40150Y8000D01*
X40095Y10905D02*
X40095Y10905D01*
X40095Y10095D02*
Y10905D01*
X40095Y10095D02*
X42400D01*
X40095Y17095D02*
X42400D01*
X24850Y16850D02*
X25000Y17000D01*
Y18500D01*
X35150Y19635D02*
X37600D01*
X32785Y12635D02*
X37600D01*
X25000Y18500D02*
X27150D01*
X31540Y29540D02*
X32000Y30000D01*
X31540Y27032D02*
Y29540D01*
X22000Y30000D02*
X26000D01*
X26460Y29540D01*
Y27032D02*
Y29540D01*
X31540Y20000D02*
Y22968D01*
Y18460D02*
Y20000D01*
X25000Y20500D02*
X26000D01*
X26460Y20960D01*
Y22968D01*
X28850Y18500D02*
X29000Y18650D01*
Y22968D01*
X31540Y18460D02*
X31635Y18365D01*
Y11365D02*
Y18365D01*
Y11365D02*
X37600D01*
X31635Y18365D02*
X37600D01*
X34000Y13905D02*
X37600D01*
X34000Y20905D02*
X37600D01*
X500Y7500D02*
X1700Y8700D01*
X7900D01*
X0Y9000D02*
Y13500D01*
X-2500Y6500D02*
X0Y9000D01*
X3000Y7500D02*
X13000D01*
X-1350Y3150D02*
X3000Y7500D01*
X13000D02*
X14500Y9000D01*
X-2500Y4850D02*
Y6500D01*
X-6000Y4850D02*
Y6000D01*
X-7500Y7500D02*
X-6000Y6000D01*
Y3150D02*
X-1350D01*
X4500Y12500D02*
Y18000D01*
Y12500D02*
X6000Y11000D01*
X5700Y13800D02*
Y17200D01*
Y13800D02*
X6200Y13300D01*
X7900D01*
X5700Y17200D02*
X6500Y18000D01*
X1000D02*
X4500D01*
X6000Y11000D02*
X7900D01*
X-500Y19500D02*
X1000Y18000D01*
X6500D02*
X10000D01*
X7900Y8700D02*
X9700D01*
X10150Y9150D01*
X11000D01*
X9500Y11000D02*
X9650Y10850D01*
X11000D01*
X7900Y11000D02*
X9500D01*
X10500Y18500D02*
Y21000D01*
X10000Y18000D02*
X10500Y18500D01*
X10000Y21500D02*
X10500Y21000D01*
X8000Y21500D02*
X10000D01*
X0D02*
X2000D01*
X-500Y21000D02*
X0Y21500D01*
X-500Y19500D02*
Y21000D01*
D20*
X42400Y12635D02*
X44635D01*
X42400Y11365D02*
X44985D01*
X45310Y11690D01*
X44635Y12635D02*
X46230Y14230D01*
X45310Y11690D02*
X50100D01*
X46230Y14230D02*
X50100D01*
X46230Y16770D02*
X50100D01*
X44635Y18365D02*
X46230Y16770D01*
X42400Y18365D02*
X44635D01*
X45190Y19310D02*
X50100D01*
X44865Y19635D02*
X45190Y19310D01*
X42400Y19635D02*
X44865D01*
D21*
X55850Y10420D02*
D03*
X55250Y20580D02*
D03*
D22*
X23146Y25000D02*
D03*
X34854D02*
D03*
X27500Y9000D02*
D03*
X23000Y18300D02*
D03*
X24500Y9000D02*
D03*
X21500Y20000D02*
D03*
X22500Y9000D02*
D03*
X20000Y24500D02*
D03*
X30350Y16850D02*
D03*
X32850Y15500D02*
D03*
X44000Y8000D02*
D03*
X45500Y15500D02*
D03*
X45595Y20905D02*
D03*
X24850Y16850D02*
D03*
X35150Y19635D02*
D03*
X32785Y12635D02*
D03*
X31540Y20000D02*
D03*
X25000Y20500D02*
D03*
X34000Y13905D02*
D03*
Y20905D02*
D03*
X15500Y7500D02*
D03*
X500D02*
D03*
X-7500D02*
D03*
X14500Y9000D02*
D03*
X0Y13500D02*
D03*
X4500Y18000D02*
D03*
X6500D02*
D03*
D23*
X24500Y4500D02*
D03*
Y2500D02*
D03*
X22500Y4500D02*
D03*
Y2500D02*
D03*
X20500Y4500D02*
D03*
Y2500D02*
D03*
X18500Y4500D02*
D03*
Y2500D02*
D03*
X16500Y4500D02*
D03*
Y2500D02*
D03*
X14500Y4500D02*
D03*
Y2500D02*
D03*
X12500Y4500D02*
D03*
X-4000Y21500D02*
D03*
X-2000D02*
D03*
X-4000Y19500D02*
D03*
X-2000D02*
D03*
X-4000Y17500D02*
D03*
X-2000D02*
D03*
X-4000Y15500D02*
D03*
X-2000D02*
D03*
X-4000Y13500D02*
D03*
X-2000D02*
D03*
X-4000Y11500D02*
D03*
X-2000D02*
D03*
X-4000Y9500D02*
D03*
D24*
X12500Y2500D02*
D03*
D25*
X-2000Y9500D02*
D03*
D26*
X45950Y4000D02*
D03*
Y27000D02*
D03*
X4050D02*
D03*
Y4000D02*
D03*
M02*
