G04 Layer_Physical_Order=2*
G04 Layer_Color=16711680*
%FSLAX43Y43*%
%MOMM*%
G71*
G01*
G75*
%ADD13R,1.000X1.100*%
%ADD14R,1.100X1.000*%
%ADD19C,0.300*%
%ADD21C,1.000*%
%ADD22C,1.400*%
%ADD23C,1.500*%
%ADD24R,1.500X1.500*%
%ADD25R,1.500X1.500*%
%ADD26C,5.000*%
%ADD27O,0.550X1.500*%
%ADD28O,1.500X0.550*%
%ADD29C,0.500*%
G36*
X20545Y20307D02*
X20526Y20261D01*
X20491Y20000D01*
X20526Y19739D01*
X20626Y19496D01*
X20787Y19287D01*
X20996Y19126D01*
X21239Y19026D01*
X21500Y18991D01*
X21761Y19026D01*
X22004Y19126D01*
X22213Y19287D01*
X22374Y19496D01*
X22392Y19541D01*
X23310D01*
X23575Y19276D01*
X23504Y19173D01*
X23261Y19274D01*
X23000Y19309D01*
X22739Y19274D01*
X22496Y19173D01*
X22287Y19013D01*
X22126Y18804D01*
X22108Y18759D01*
X18573D01*
X18449Y18842D01*
X18225Y18886D01*
X17275D01*
X17051Y18842D01*
X16860Y18715D01*
X16733Y18524D01*
X16689Y18300D01*
X16733Y18076D01*
X16851Y17900D01*
X16733Y17724D01*
X16689Y17500D01*
X16733Y17276D01*
X16851Y17100D01*
X16733Y16924D01*
X16689Y16700D01*
X16733Y16476D01*
X16851Y16300D01*
X16733Y16124D01*
X16689Y15900D01*
X16731Y15686D01*
X16728Y15656D01*
X16677Y15559D01*
X11259D01*
Y15900D01*
X11224Y16076D01*
X11124Y16224D01*
X10976Y16324D01*
X10800Y16359D01*
X10323D01*
X10272Y16456D01*
X10269Y16486D01*
X10311Y16700D01*
X10267Y16924D01*
X10149Y17100D01*
X10267Y17276D01*
X10311Y17500D01*
X10267Y17724D01*
X10149Y17900D01*
X10267Y18076D01*
X10311Y18300D01*
X10267Y18524D01*
X10140Y18715D01*
X9949Y18842D01*
X9725Y18886D01*
X8775D01*
X8551Y18842D01*
X8360Y18715D01*
X8233Y18524D01*
X8189Y18300D01*
X8233Y18076D01*
X8351Y17900D01*
X8233Y17724D01*
X8189Y17500D01*
X8231Y17286D01*
X8228Y17256D01*
X8177Y17159D01*
X7700D01*
X7524Y17124D01*
X7376Y17024D01*
X7287Y16891D01*
X7200Y16800D01*
X6809D01*
Y17046D01*
X7004Y17126D01*
X7213Y17287D01*
X7373Y17496D01*
X7474Y17739D01*
X7509Y18000D01*
X7474Y18261D01*
X7373Y18504D01*
X7213Y18713D01*
X7004Y18874D01*
X6761Y18974D01*
X6500Y19009D01*
X6239Y18974D01*
X5996Y18874D01*
X5787Y18713D01*
X5627Y18504D01*
X5544Y18305D01*
X5408Y18300D01*
X5333Y18481D01*
X5180Y18680D01*
X4981Y18833D01*
X4749Y18929D01*
X4627Y18946D01*
Y18000D01*
X4500D01*
Y17873D01*
X3554D01*
X3571Y17751D01*
X3667Y17519D01*
X3820Y17320D01*
X4019Y17167D01*
X4191Y17095D01*
Y16754D01*
X3846D01*
Y16127D01*
X4650D01*
Y15873D01*
X3846D01*
Y15863D01*
X3729Y15814D01*
X1459Y18084D01*
Y20197D01*
X1424Y20373D01*
X1324Y20521D01*
X899Y20947D01*
X948Y21064D01*
X10241D01*
Y20573D01*
X10158Y20449D01*
X10114Y20225D01*
Y19275D01*
X10158Y19051D01*
X10285Y18860D01*
X10476Y18733D01*
X10700Y18689D01*
X10924Y18733D01*
X11100Y18851D01*
X11276Y18733D01*
X11500Y18689D01*
X11724Y18733D01*
X11900Y18851D01*
X12076Y18733D01*
X12300Y18689D01*
X12524Y18733D01*
X12700Y18851D01*
X12876Y18733D01*
X13100Y18689D01*
X13324Y18733D01*
X13500Y18851D01*
X13676Y18733D01*
X13900Y18689D01*
X14124Y18733D01*
X14300Y18851D01*
X14476Y18733D01*
X14700Y18689D01*
X14924Y18733D01*
X15100Y18851D01*
X15276Y18733D01*
X15500Y18689D01*
X15724Y18733D01*
X15900Y18851D01*
X16076Y18733D01*
X16300Y18689D01*
X16524Y18733D01*
X16715Y18860D01*
X16842Y19051D01*
X16886Y19275D01*
Y20225D01*
X16842Y20449D01*
X16759Y20573D01*
Y21110D01*
X17190Y21541D01*
X19310D01*
X20545Y20307D01*
D02*
G37*
G36*
X33541Y16332D02*
X33414Y16270D01*
X33331Y16333D01*
X33099Y16429D01*
X32977Y16446D01*
Y15500D01*
Y14554D01*
X33089Y14569D01*
X33113Y14548D01*
X33166Y14461D01*
X33126Y14409D01*
X33026Y14166D01*
X32991Y13905D01*
X33013Y13742D01*
X32900Y13629D01*
X32785Y13644D01*
X32524Y13609D01*
X32281Y13508D01*
X32072Y13348D01*
X31912Y13139D01*
X31893Y13094D01*
X21555D01*
X20824Y13824D01*
X20676Y13924D01*
X20500Y13959D01*
X18823D01*
X18772Y14056D01*
X18769Y14086D01*
X18811Y14300D01*
X18769Y14514D01*
X18772Y14544D01*
X18823Y14641D01*
X20246D01*
Y14346D01*
X20873D01*
Y15150D01*
X21127D01*
Y14346D01*
X21754D01*
Y14691D01*
X31650D01*
X31826Y14726D01*
X31974Y14826D01*
X32014Y14865D01*
X32141Y14857D01*
X32170Y14820D01*
X32369Y14667D01*
X32601Y14571D01*
X32723Y14554D01*
Y15500D01*
Y16446D01*
X32601Y16429D01*
X32369Y16333D01*
X32170Y16180D01*
X32017Y15981D01*
X32007Y15959D01*
X32000D01*
X31824Y15924D01*
X31676Y15824D01*
X31460Y15609D01*
X21754D01*
Y15892D01*
X21800Y16000D01*
X21800D01*
X21800Y16000D01*
Y16391D01*
X23958D01*
X23977Y16346D01*
X24137Y16137D01*
X24346Y15976D01*
X24589Y15876D01*
X24850Y15841D01*
X25111Y15876D01*
X25354Y15976D01*
X25563Y16137D01*
X25723Y16346D01*
X25742Y16391D01*
X29458D01*
X29476Y16346D01*
X29637Y16137D01*
X29846Y15976D01*
X30089Y15876D01*
X30350Y15841D01*
X30611Y15876D01*
X30854Y15976D01*
X31063Y16137D01*
X31223Y16346D01*
X31324Y16589D01*
X31359Y16850D01*
X31324Y17111D01*
X31223Y17354D01*
X31063Y17563D01*
X30866Y17714D01*
X30867Y17755D01*
X30902Y17841D01*
X33541D01*
Y16332D01*
D02*
G37*
G36*
X59567Y433D02*
X-9567D01*
Y13891D01*
X-9440Y13904D01*
X-9424Y13824D01*
X-9324Y13676D01*
X-8824Y13176D01*
X-8676Y13076D01*
X-8500Y13041D01*
X-8300D01*
Y11500D01*
X-8300D01*
X-8254Y11454D01*
Y10777D01*
X-7500D01*
Y10650D01*
X-7373D01*
Y9846D01*
X-6809D01*
Y8840D01*
X-7229Y8420D01*
X-7251Y8429D01*
X-7373Y8446D01*
Y7627D01*
X-6554D01*
X-6571Y7749D01*
X-6580Y7771D01*
X-6026Y8326D01*
X-5926Y8474D01*
X-5891Y8650D01*
Y10460D01*
X-5310Y11041D01*
X-4897D01*
X-4877Y10994D01*
X-4716Y10784D01*
X-4506Y10623D01*
X-4435Y10594D01*
Y10456D01*
X-4530Y10417D01*
X-4749Y10249D01*
X-4917Y10030D01*
X-5023Y9774D01*
X-5059Y9500D01*
X-5023Y9226D01*
X-4917Y8970D01*
X-4749Y8751D01*
X-4530Y8583D01*
X-4274Y8477D01*
X-4000Y8441D01*
X-3726Y8477D01*
X-3470Y8583D01*
X-3251Y8751D01*
X-3177Y8848D01*
X-3050Y8805D01*
Y8450D01*
X-950D01*
Y8939D01*
X41D01*
Y8392D01*
X-4Y8373D01*
X-213Y8213D01*
X-373Y8004D01*
X-474Y7761D01*
X-509Y7500D01*
X-474Y7239D01*
X-373Y6996D01*
X-213Y6787D01*
X-4Y6627D01*
X239Y6526D01*
X500Y6491D01*
X761Y6526D01*
X1004Y6627D01*
X1213Y6787D01*
X1373Y6996D01*
X1474Y7239D01*
X1509Y7500D01*
X1474Y7761D01*
X1373Y8004D01*
X1213Y8213D01*
X1004Y8373D01*
X959Y8392D01*
Y8939D01*
X3268D01*
X5803Y6403D01*
X5985Y6282D01*
X6200Y6239D01*
X9968D01*
X11472Y4735D01*
X11441Y4500D01*
X11477Y4226D01*
X11583Y3970D01*
X11751Y3751D01*
X11848Y3677D01*
X11805Y3550D01*
X11450D01*
Y1450D01*
X13550D01*
Y1880D01*
X13677Y1923D01*
X13784Y1784D01*
X13994Y1623D01*
X14238Y1522D01*
X14373Y1504D01*
Y2500D01*
X14627D01*
Y1504D01*
X14762Y1522D01*
X15006Y1623D01*
X15216Y1784D01*
X15377Y1994D01*
X15406Y2065D01*
X15544D01*
X15583Y1970D01*
X15751Y1751D01*
X15970Y1583D01*
X16226Y1477D01*
X16500Y1441D01*
X16774Y1477D01*
X17030Y1583D01*
X17249Y1751D01*
X17417Y1970D01*
X17437Y2017D01*
X17563D01*
X17583Y1970D01*
X17751Y1751D01*
X17970Y1583D01*
X18226Y1477D01*
X18500Y1441D01*
X18774Y1477D01*
X19030Y1583D01*
X19249Y1751D01*
X19417Y1970D01*
X19437Y2017D01*
X19563D01*
X19583Y1970D01*
X19751Y1751D01*
X19970Y1583D01*
X20226Y1477D01*
X20500Y1441D01*
X20774Y1477D01*
X21030Y1583D01*
X21249Y1751D01*
X21417Y1970D01*
X21437Y2017D01*
X21563D01*
X21583Y1970D01*
X21751Y1751D01*
X21970Y1583D01*
X22226Y1477D01*
X22500Y1441D01*
X22774Y1477D01*
X23030Y1583D01*
X23249Y1751D01*
X23417Y1970D01*
X23437Y2017D01*
X23563D01*
X23583Y1970D01*
X23751Y1751D01*
X23970Y1583D01*
X24226Y1477D01*
X24500Y1441D01*
X24774Y1477D01*
X25030Y1583D01*
X25249Y1751D01*
X25417Y1970D01*
X25446Y2041D01*
X26500D01*
X26676Y2076D01*
X26824Y2176D01*
X27824Y3176D01*
X27924Y3324D01*
X27959Y3500D01*
Y8108D01*
X28004Y8127D01*
X28213Y8287D01*
X28374Y8496D01*
X28474Y8739D01*
X28509Y9000D01*
X28474Y9261D01*
X28374Y9504D01*
X28213Y9713D01*
X28004Y9873D01*
X27761Y9974D01*
X27500Y10009D01*
X27239Y9974D01*
X26996Y9873D01*
X26787Y9713D01*
X26627Y9504D01*
X26526Y9261D01*
X26491Y9000D01*
X26526Y8739D01*
X26627Y8496D01*
X26787Y8287D01*
X26996Y8127D01*
X27041Y8108D01*
Y3690D01*
X26310Y2959D01*
X25446D01*
X25417Y3030D01*
X25249Y3249D01*
X25030Y3417D01*
X24983Y3437D01*
Y3563D01*
X25030Y3583D01*
X25249Y3751D01*
X25417Y3970D01*
X25523Y4226D01*
X25559Y4500D01*
X25523Y4774D01*
X25417Y5030D01*
X25249Y5249D01*
X25030Y5417D01*
X24959Y5446D01*
Y8108D01*
X25004Y8127D01*
X25213Y8287D01*
X25374Y8496D01*
X25474Y8739D01*
X25509Y9000D01*
X25474Y9261D01*
X25374Y9504D01*
X25213Y9713D01*
X25004Y9873D01*
X24761Y9974D01*
X24500Y10009D01*
X24239Y9974D01*
X23996Y9873D01*
X23787Y9713D01*
X23626Y9504D01*
X23569Y9365D01*
X23431D01*
X23374Y9504D01*
X23213Y9713D01*
X23004Y9873D01*
X22761Y9974D01*
X22500Y10009D01*
X22239Y9974D01*
X21996Y9873D01*
X21787Y9713D01*
X21626Y9504D01*
X21526Y9261D01*
X21491Y9000D01*
X21526Y8739D01*
X21626Y8496D01*
X21787Y8287D01*
X21996Y8127D01*
X22041Y8108D01*
Y5446D01*
X21970Y5417D01*
X21751Y5249D01*
X21583Y5030D01*
X21563Y4983D01*
X21437D01*
X21417Y5030D01*
X21249Y5249D01*
X21030Y5417D01*
X20959Y5446D01*
Y5500D01*
X20924Y5676D01*
X20824Y5824D01*
X16759Y9890D01*
Y10427D01*
X16842Y10551D01*
X16886Y10775D01*
Y11725D01*
X16842Y11949D01*
X16715Y12140D01*
X16524Y12267D01*
X16300Y12311D01*
X16076Y12267D01*
X15900Y12149D01*
X15724Y12267D01*
X15500Y12311D01*
X15276Y12267D01*
X15100Y12149D01*
X14924Y12267D01*
X14700Y12311D01*
X14476Y12267D01*
X14300Y12149D01*
X14124Y12267D01*
X13900Y12311D01*
X13676Y12267D01*
X13500Y12149D01*
X13324Y12267D01*
X13100Y12311D01*
X12876Y12267D01*
X12700Y12149D01*
X12524Y12267D01*
X12300Y12311D01*
X12076Y12267D01*
X11900Y12149D01*
X11724Y12267D01*
X11500Y12311D01*
X11276Y12267D01*
X11100Y12149D01*
X10924Y12267D01*
X10700Y12311D01*
X10476Y12267D01*
X10285Y12140D01*
X10158Y11949D01*
X10114Y11725D01*
Y10775D01*
X10158Y10551D01*
X10241Y10427D01*
Y9959D01*
X9690D01*
X7525Y12124D01*
X7574Y12241D01*
X8427D01*
X8551Y12158D01*
X8775Y12114D01*
X9725D01*
X9949Y12158D01*
X10140Y12285D01*
X10267Y12476D01*
X10311Y12700D01*
X10267Y12924D01*
X10149Y13100D01*
X10267Y13276D01*
X10311Y13500D01*
X10269Y13714D01*
X10272Y13744D01*
X10323Y13841D01*
X10800D01*
X10976Y13876D01*
X11124Y13976D01*
X11224Y14124D01*
X11259Y14300D01*
Y14641D01*
X16677D01*
X16728Y14544D01*
X16731Y14514D01*
X16689Y14300D01*
X16733Y14076D01*
X16851Y13900D01*
X16733Y13724D01*
X16689Y13500D01*
X16733Y13276D01*
X16851Y13100D01*
X16733Y12924D01*
X16689Y12700D01*
X16733Y12476D01*
X16860Y12285D01*
X17051Y12158D01*
X17275Y12114D01*
X18225D01*
X18449Y12158D01*
X18573Y12241D01*
X20110D01*
X21176Y11176D01*
X21324Y11076D01*
X21500Y11041D01*
X32233D01*
X32309Y11026D01*
X33985D01*
X34161Y11061D01*
X34309Y11161D01*
X35474Y12326D01*
X35574Y12474D01*
X35609Y12650D01*
Y14381D01*
X35594Y14457D01*
Y18736D01*
X35654Y18761D01*
X35863Y18922D01*
X36023Y19131D01*
X36124Y19374D01*
X36159Y19635D01*
X36124Y19896D01*
X36023Y20139D01*
X35863Y20348D01*
X35654Y20508D01*
X35411Y20609D01*
X35150Y20644D01*
X35101Y20637D01*
X34988Y20750D01*
X35009Y20905D01*
X34974Y21166D01*
X34874Y21409D01*
X34713Y21618D01*
X34504Y21778D01*
X34261Y21879D01*
X34000Y21914D01*
X33739Y21879D01*
X33496Y21778D01*
X33287Y21618D01*
X33126Y21409D01*
X33026Y21166D01*
X32991Y20905D01*
X33026Y20644D01*
X33126Y20401D01*
X33287Y20192D01*
X33496Y20031D01*
X33541Y20013D01*
Y18759D01*
X31114D01*
X31065Y18876D01*
X31233Y19045D01*
X31279Y19026D01*
X31540Y18991D01*
X31801Y19026D01*
X32044Y19126D01*
X32253Y19287D01*
X32414Y19496D01*
X32514Y19739D01*
X32549Y20000D01*
X32514Y20261D01*
X32414Y20504D01*
X32253Y20713D01*
X32044Y20874D01*
X31801Y20974D01*
X31540Y21009D01*
X31279Y20974D01*
X31036Y20874D01*
X30827Y20713D01*
X30667Y20504D01*
X30566Y20261D01*
X30531Y20000D01*
X30566Y19739D01*
X30585Y19693D01*
X30350Y19459D01*
X25431D01*
X25406Y19586D01*
X25504Y19626D01*
X25713Y19787D01*
X25874Y19996D01*
X25974Y20239D01*
X26009Y20500D01*
X25974Y20761D01*
X25874Y21004D01*
X25713Y21213D01*
X25504Y21374D01*
X25261Y21474D01*
X25000Y21509D01*
X24739Y21474D01*
X24693Y21455D01*
X21324Y24824D01*
X21176Y24924D01*
X21000Y24959D01*
X20892D01*
X20874Y25004D01*
X20713Y25213D01*
X20504Y25374D01*
X20261Y25474D01*
X20000Y25509D01*
X19739Y25474D01*
X19496Y25374D01*
X19287Y25213D01*
X19126Y25004D01*
X19108Y24959D01*
X17500D01*
X17324Y24924D01*
X17176Y24824D01*
X15176Y22824D01*
X15076Y22676D01*
X15041Y22500D01*
Y20823D01*
X14944Y20772D01*
X14914Y20769D01*
X14700Y20811D01*
X14486Y20769D01*
X14456Y20772D01*
X14359Y20823D01*
Y21400D01*
X14324Y21576D01*
X14224Y21724D01*
X11624Y24324D01*
X11476Y24424D01*
X11300Y24459D01*
X5505D01*
X5469Y24586D01*
X5701Y24728D01*
X6036Y25014D01*
X6322Y25349D01*
X6553Y25725D01*
X6721Y26132D01*
X6824Y26561D01*
X6859Y27000D01*
X6824Y27439D01*
X6721Y27868D01*
X6553Y28275D01*
X6322Y28651D01*
X6036Y28986D01*
X5701Y29272D01*
X5325Y29503D01*
X4918Y29671D01*
X4489Y29774D01*
X4050Y29809D01*
X3611Y29774D01*
X3182Y29671D01*
X2775Y29503D01*
X2399Y29272D01*
X2064Y28986D01*
X1778Y28651D01*
X1547Y28275D01*
X1379Y27868D01*
X1276Y27439D01*
X1241Y27000D01*
X1276Y26561D01*
X1379Y26132D01*
X1547Y25725D01*
X1778Y25349D01*
X2064Y25014D01*
X2399Y24728D01*
X2631Y24586D01*
X2595Y24459D01*
X781D01*
X-184Y25424D01*
X-333Y25524D01*
X-509Y25559D01*
X-4643D01*
X-4818Y25524D01*
X-4967Y25424D01*
X-7824Y22567D01*
X-7924Y22418D01*
X-7959Y22243D01*
Y17700D01*
X-8300D01*
Y17309D01*
X-8650D01*
X-8826Y17274D01*
X-8974Y17174D01*
X-9324Y16824D01*
X-9424Y16676D01*
X-9440Y16596D01*
X-9567Y16609D01*
Y30567D01*
X59567D01*
Y433D01*
D02*
G37*
%LPC*%
G36*
X4373Y18946D02*
X4251Y18929D01*
X4019Y18833D01*
X3820Y18680D01*
X3667Y18481D01*
X3571Y18249D01*
X3554Y18127D01*
X4373D01*
Y18946D01*
D02*
G37*
G36*
X45950Y29809D02*
X45511Y29774D01*
X45082Y29671D01*
X44675Y29503D01*
X44299Y29272D01*
X43964Y28986D01*
X43678Y28651D01*
X43447Y28275D01*
X43279Y27868D01*
X43176Y27439D01*
X43141Y27000D01*
X43176Y26561D01*
X43279Y26132D01*
X43447Y25725D01*
X43678Y25349D01*
X43964Y25014D01*
X44299Y24728D01*
X44675Y24497D01*
X45082Y24329D01*
X45511Y24226D01*
X45950Y24191D01*
X46389Y24226D01*
X46818Y24329D01*
X47225Y24497D01*
X47601Y24728D01*
X47936Y25014D01*
X48222Y25349D01*
X48453Y25725D01*
X48621Y26132D01*
X48724Y26561D01*
X48759Y27000D01*
X48724Y27439D01*
X48621Y27868D01*
X48453Y28275D01*
X48222Y28651D01*
X47936Y28986D01*
X47601Y29272D01*
X47225Y29503D01*
X46818Y29671D01*
X46389Y29774D01*
X45950Y29809D01*
D02*
G37*
G36*
X34854Y26009D02*
X34593Y25974D01*
X34350Y25874D01*
X34141Y25713D01*
X33980Y25504D01*
X33880Y25261D01*
X33845Y25000D01*
X33880Y24739D01*
X33980Y24496D01*
X34141Y24287D01*
X34350Y24126D01*
X34593Y24026D01*
X34854Y23991D01*
X35115Y24026D01*
X35358Y24126D01*
X35567Y24287D01*
X35728Y24496D01*
X35828Y24739D01*
X35863Y25000D01*
X35828Y25261D01*
X35728Y25504D01*
X35567Y25713D01*
X35358Y25874D01*
X35115Y25974D01*
X34854Y26009D01*
D02*
G37*
G36*
X23146D02*
X22885Y25974D01*
X22642Y25874D01*
X22433Y25713D01*
X22273Y25504D01*
X22172Y25261D01*
X22137Y25000D01*
X22172Y24739D01*
X22273Y24496D01*
X22433Y24287D01*
X22642Y24126D01*
X22885Y24026D01*
X23146Y23991D01*
X23407Y24026D01*
X23650Y24126D01*
X23859Y24287D01*
X24020Y24496D01*
X24120Y24739D01*
X24155Y25000D01*
X24120Y25261D01*
X24020Y25504D01*
X23859Y25713D01*
X23650Y25874D01*
X23407Y25974D01*
X23146Y26009D01*
D02*
G37*
G36*
X45595Y21914D02*
X45334Y21879D01*
X45091Y21778D01*
X44882Y21618D01*
X44722Y21409D01*
X44703Y21364D01*
X40095D01*
X39919Y21329D01*
X39771Y21229D01*
X39671Y21081D01*
X39636Y20905D01*
Y15595D01*
Y8095D01*
X39671Y7919D01*
X39771Y7771D01*
X39866Y7676D01*
X40014Y7576D01*
X40190Y7541D01*
X43108D01*
X43127Y7496D01*
X43287Y7287D01*
X43496Y7127D01*
X43739Y7026D01*
X44000Y6991D01*
X44261Y7026D01*
X44504Y7127D01*
X44713Y7287D01*
X44874Y7496D01*
X44974Y7739D01*
X45009Y8000D01*
X44974Y8261D01*
X44874Y8504D01*
X44713Y8713D01*
X44504Y8873D01*
X44261Y8974D01*
X44000Y9009D01*
X43739Y8974D01*
X43496Y8873D01*
X43287Y8713D01*
X43127Y8504D01*
X43108Y8459D01*
X40554D01*
Y15136D01*
X44568D01*
X44626Y14996D01*
X44787Y14787D01*
X44996Y14627D01*
X45239Y14526D01*
X45500Y14491D01*
X45761Y14526D01*
X46004Y14627D01*
X46213Y14787D01*
X46374Y14996D01*
X46474Y15239D01*
X46509Y15500D01*
X46474Y15761D01*
X46374Y16004D01*
X46213Y16213D01*
X46004Y16374D01*
X45761Y16474D01*
X45500Y16509D01*
X45239Y16474D01*
X44996Y16374D01*
X44787Y16213D01*
X44664Y16054D01*
X40554D01*
Y20446D01*
X44703D01*
X44722Y20401D01*
X44882Y20192D01*
X45091Y20032D01*
X45334Y19931D01*
X45595Y19896D01*
X45856Y19931D01*
X46099Y20032D01*
X46308Y20192D01*
X46468Y20401D01*
X46569Y20644D01*
X46604Y20905D01*
X46569Y21166D01*
X46468Y21409D01*
X46308Y21618D01*
X46099Y21778D01*
X45856Y21879D01*
X45595Y21914D01*
D02*
G37*
G36*
X55250Y21387D02*
X55041Y21359D01*
X54847Y21279D01*
X54679Y21151D01*
X54551Y20983D01*
X54471Y20789D01*
X54443Y20580D01*
X54471Y20371D01*
X54551Y20177D01*
X54679Y20009D01*
X54847Y19881D01*
X55041Y19801D01*
X55250Y19773D01*
X55459Y19801D01*
X55653Y19881D01*
X55821Y20009D01*
X55949Y20177D01*
X56029Y20371D01*
X56057Y20580D01*
X56029Y20789D01*
X55949Y20983D01*
X55821Y21151D01*
X55653Y21279D01*
X55459Y21359D01*
X55250Y21387D01*
D02*
G37*
G36*
X-7627Y10523D02*
X-8254D01*
Y9846D01*
X-7627D01*
Y10523D01*
D02*
G37*
G36*
X55850Y11227D02*
X55641Y11199D01*
X55447Y11119D01*
X55279Y10991D01*
X55151Y10823D01*
X55071Y10629D01*
X55043Y10420D01*
X55071Y10211D01*
X55151Y10017D01*
X55279Y9849D01*
X55447Y9721D01*
X55641Y9641D01*
X55850Y9613D01*
X56059Y9641D01*
X56253Y9721D01*
X56421Y9849D01*
X56549Y10017D01*
X56629Y10211D01*
X56657Y10420D01*
X56629Y10629D01*
X56549Y10823D01*
X56421Y10991D01*
X56253Y11119D01*
X56059Y11199D01*
X55850Y11227D01*
D02*
G37*
G36*
X-7627Y8446D02*
X-7749Y8429D01*
X-7981Y8333D01*
X-8180Y8180D01*
X-8333Y7981D01*
X-8429Y7749D01*
X-8446Y7627D01*
X-7627D01*
Y8446D01*
D02*
G37*
G36*
X-6554Y7373D02*
X-7373D01*
Y6554D01*
X-7251Y6571D01*
X-7019Y6667D01*
X-6820Y6820D01*
X-6667Y7019D01*
X-6571Y7251D01*
X-6554Y7373D01*
D02*
G37*
G36*
X-7627D02*
X-8446D01*
X-8429Y7251D01*
X-8333Y7019D01*
X-8180Y6820D01*
X-7981Y6667D01*
X-7749Y6571D01*
X-7627Y6554D01*
Y7373D01*
D02*
G37*
G36*
X45950Y6809D02*
X45511Y6774D01*
X45082Y6671D01*
X44675Y6503D01*
X44299Y6272D01*
X43964Y5986D01*
X43678Y5651D01*
X43447Y5275D01*
X43279Y4868D01*
X43176Y4439D01*
X43141Y4000D01*
X43176Y3561D01*
X43279Y3132D01*
X43447Y2725D01*
X43678Y2349D01*
X43964Y2014D01*
X44299Y1728D01*
X44675Y1497D01*
X45082Y1329D01*
X45511Y1226D01*
X45950Y1191D01*
X46389Y1226D01*
X46818Y1329D01*
X47225Y1497D01*
X47601Y1728D01*
X47936Y2014D01*
X48222Y2349D01*
X48453Y2725D01*
X48621Y3132D01*
X48724Y3561D01*
X48759Y4000D01*
X48724Y4439D01*
X48621Y4868D01*
X48453Y5275D01*
X48222Y5651D01*
X47936Y5986D01*
X47601Y6272D01*
X47225Y6503D01*
X46818Y6671D01*
X46389Y6774D01*
X45950Y6809D01*
D02*
G37*
G36*
X4050D02*
X3611Y6774D01*
X3182Y6671D01*
X2775Y6503D01*
X2399Y6272D01*
X2064Y5986D01*
X1778Y5651D01*
X1547Y5275D01*
X1379Y4868D01*
X1276Y4439D01*
X1241Y4000D01*
X1276Y3561D01*
X1379Y3132D01*
X1547Y2725D01*
X1778Y2349D01*
X2064Y2014D01*
X2399Y1728D01*
X2775Y1497D01*
X3182Y1329D01*
X3611Y1226D01*
X4050Y1191D01*
X4489Y1226D01*
X4918Y1329D01*
X5325Y1497D01*
X5701Y1728D01*
X6036Y2014D01*
X6322Y2349D01*
X6553Y2725D01*
X6721Y3132D01*
X6824Y3561D01*
X6859Y4000D01*
X6824Y4439D01*
X6721Y4868D01*
X6553Y5275D01*
X6322Y5651D01*
X6036Y5986D01*
X5701Y6272D01*
X5325Y6503D01*
X4918Y6671D01*
X4489Y6774D01*
X4050Y6809D01*
D02*
G37*
%LPD*%
D13*
X-7500Y10650D02*
D03*
Y12350D02*
D03*
Y16850D02*
D03*
Y15150D02*
D03*
X21000Y16850D02*
D03*
Y15150D02*
D03*
D14*
X6350Y16000D02*
D03*
X4650D02*
D03*
D19*
X24500Y4500D02*
Y9000D01*
X23000Y18300D02*
X33935D01*
X17750D02*
X23000D01*
X24500Y2500D02*
X26500D01*
X27500Y3500D01*
Y9000D01*
X23500Y20000D02*
X24500Y19000D01*
X21500Y20000D02*
X23500D01*
X24500Y19000D02*
X30540D01*
X19500Y22000D02*
X21500Y20000D01*
X17000Y22000D02*
X19500D01*
X30540Y19000D02*
X31540Y20000D01*
X22500Y4500D02*
Y9000D01*
X20000Y24500D02*
X21000D01*
X17500D02*
X20000D01*
X21000D02*
X25000Y20500D01*
X15500Y22500D02*
X17500Y24500D01*
X24850Y16850D02*
X30350D01*
X34000Y18365D02*
Y20905D01*
Y13905D02*
Y18365D01*
X31650Y15150D02*
X32000Y15500D01*
X32850D01*
X21000Y15150D02*
X31650D01*
X40190Y8000D02*
X44000D01*
X40095Y8095D02*
X40190Y8000D01*
X40095Y8095D02*
Y15595D01*
X45405D02*
X45500Y15500D01*
X40095Y15595D02*
X45405D01*
X40095D02*
Y20905D01*
X45595D01*
X21000Y16850D02*
X24850D01*
X21365Y12635D02*
X32785D01*
X20500Y13500D02*
X21365Y12635D01*
X17750Y13500D02*
X20500D01*
X20300Y12700D02*
X21500Y11500D01*
X17750Y12700D02*
X20300D01*
X35135Y14396D02*
Y19635D01*
X21500Y11500D02*
X32294D01*
X32309Y11485D01*
X33985D01*
X35150Y12650D01*
Y14381D01*
X35135Y14396D02*
X35150Y14381D01*
X35135Y19635D02*
X35150D01*
X16300Y21300D02*
X17000Y22000D01*
X15500Y19750D02*
Y22500D01*
X33935Y18300D02*
X34000Y18365D01*
X20500Y4500D02*
Y5500D01*
X16300Y9700D02*
X20500Y5500D01*
X16300Y9700D02*
Y11250D01*
X18500Y4500D02*
Y6626D01*
X15500Y9626D02*
X18500Y6626D01*
X15500Y9626D02*
Y11250D01*
X14000Y7500D02*
X15500D01*
X13100Y8400D02*
X14000Y7500D01*
X20950Y15100D02*
X21000Y15150D01*
X17750Y15100D02*
X20950D01*
X19500Y17500D02*
X20150Y16850D01*
X21000D01*
X500Y7500D02*
Y9500D01*
X-7500Y7500D02*
X-6350Y8650D01*
Y10650D01*
X13100Y8400D02*
Y11250D01*
X13900Y9600D02*
Y11250D01*
Y9600D02*
X14500Y9000D01*
X11300Y24000D02*
X13900Y21400D01*
X-757Y24500D02*
X1020Y22723D01*
X10974D01*
X12300Y21397D01*
Y19750D02*
Y21397D01*
X11500Y19750D02*
Y21349D01*
X10726Y22123D02*
X11500Y21349D01*
X771Y22123D02*
X10726D01*
X-1254Y23300D02*
X523Y21523D01*
X10477D01*
X10700Y21300D01*
X591Y24000D02*
X11300D01*
X-509Y25100D02*
X591Y24000D01*
X-4643Y25100D02*
X-509D01*
X-7500Y22243D02*
X-4643Y25100D01*
X-7500Y16850D02*
Y22243D01*
X4700Y10800D02*
X6000D01*
X0Y15500D02*
X4700Y10800D01*
X4949Y11400D02*
X6500D01*
X-1151Y17500D02*
X4949Y11400D01*
X5197Y12000D02*
X7000D01*
X-600Y17797D02*
X5197Y12000D01*
X5346Y12700D02*
X9250D01*
X0Y18046D02*
X5346Y12700D01*
X-0Y13500D02*
X0Y13500D01*
X-2000Y13500D02*
X-0D01*
X-1503Y22700D02*
X1000Y20197D01*
Y17894D02*
Y20197D01*
Y17894D02*
X5394Y13500D01*
X-2000Y21500D02*
X0Y19500D01*
Y18046D02*
Y19500D01*
X-2000Y19500D02*
X-600Y18100D01*
Y17797D02*
Y18100D01*
X-2000Y17500D02*
X-1151D01*
X-2000Y15500D02*
X0D01*
X4650Y15093D02*
Y16000D01*
Y15093D02*
X5443Y14300D01*
X9250D01*
X5394Y13500D02*
X9250D01*
X4650Y16000D02*
Y17850D01*
X4500Y18000D02*
X4650Y17850D01*
X6350Y16000D02*
Y17850D01*
X6500Y18000D01*
X7700Y16000D02*
Y16700D01*
Y15100D02*
Y16000D01*
X6350D02*
X7700D01*
X-8650Y16850D02*
X-7500D01*
X-9000Y16500D02*
X-8650Y16850D01*
X-9000Y14000D02*
Y16500D01*
X10800Y15062D02*
Y15900D01*
X9250D02*
X10800D01*
X-8500Y13500D02*
X-7500D01*
X-9000Y14000D02*
X-8500Y13500D01*
X-7500Y12350D02*
Y13500D01*
Y10650D02*
X-6350D01*
X-5500Y11500D01*
X-4000D01*
X-7500Y15150D02*
X-5650D01*
X-4000Y13500D01*
X10800Y14300D02*
Y15062D01*
X10837Y15100D01*
X17750D01*
X9250Y14300D02*
X10800D01*
X7700Y15100D02*
X9250D01*
X7700Y16700D02*
X9250D01*
X8500Y8300D02*
X11148D01*
X6000Y10800D02*
X8500Y8300D01*
X9000Y8900D02*
X10900D01*
X6500Y11400D02*
X9000Y8900D01*
X9500Y9500D02*
X10500D01*
X7000Y12000D02*
X9500Y9500D01*
X13900Y19750D02*
Y21400D01*
X16300Y19750D02*
Y21300D01*
X11500Y9500D02*
Y11250D01*
X12300Y9452D02*
Y11250D01*
X17750Y17500D02*
X19500D01*
X10700Y9700D02*
Y11250D01*
X10500Y9500D02*
X10700Y9700D01*
X10900Y8900D02*
X11500Y9500D01*
X11148Y8300D02*
X12300Y9452D01*
X-4000Y21500D02*
Y21500D01*
X-2800Y22700D01*
X-1503D01*
X10700Y19750D02*
Y21300D01*
X-5200Y20700D02*
X-4000Y19500D01*
X-5200Y20700D02*
Y21997D01*
X-3897Y23300D01*
X-1254D01*
X-5800Y22246D02*
X-4146Y23900D01*
X-1006D01*
X771Y22123D01*
X-5500Y19000D02*
X-4000Y17500D01*
X-5500Y19000D02*
Y19000D01*
X-5800Y19300D02*
X-5500Y19000D01*
X-5800Y19300D02*
Y22246D01*
X-6400Y17900D02*
X-4000Y15500D01*
X-6400Y17900D02*
Y22494D01*
X-4394Y24500D01*
X-757D01*
D21*
X55850Y10420D02*
D03*
X55250Y20580D02*
D03*
D22*
X23146Y25000D02*
D03*
X34854D02*
D03*
X27500Y9000D02*
D03*
X23000Y18300D02*
D03*
X24500Y9000D02*
D03*
X21500Y20000D02*
D03*
X22500Y9000D02*
D03*
X20000Y24500D02*
D03*
X30350Y16850D02*
D03*
X32850Y15500D02*
D03*
X44000Y8000D02*
D03*
X45500Y15500D02*
D03*
X45595Y20905D02*
D03*
X24850Y16850D02*
D03*
X35150Y19635D02*
D03*
X32785Y12635D02*
D03*
X31540Y20000D02*
D03*
X25000Y20500D02*
D03*
X34000Y13905D02*
D03*
Y20905D02*
D03*
X15500Y7500D02*
D03*
X500D02*
D03*
X-7500D02*
D03*
X14500Y9000D02*
D03*
X0Y13500D02*
D03*
X4500Y18000D02*
D03*
X6500D02*
D03*
D23*
X24500Y4500D02*
D03*
Y2500D02*
D03*
X22500Y4500D02*
D03*
Y2500D02*
D03*
X20500Y4500D02*
D03*
Y2500D02*
D03*
X18500Y4500D02*
D03*
Y2500D02*
D03*
X16500Y4500D02*
D03*
Y2500D02*
D03*
X14500Y4500D02*
D03*
Y2500D02*
D03*
X12500Y4500D02*
D03*
X-4000Y21500D02*
D03*
X-2000D02*
D03*
X-4000Y19500D02*
D03*
X-2000D02*
D03*
X-4000Y17500D02*
D03*
X-2000D02*
D03*
X-4000Y15500D02*
D03*
X-2000D02*
D03*
X-4000Y13500D02*
D03*
X-2000D02*
D03*
X-4000Y11500D02*
D03*
X-2000D02*
D03*
X-4000Y9500D02*
D03*
D24*
X12500Y2500D02*
D03*
D25*
X-2000Y9500D02*
D03*
D26*
X45950Y4000D02*
D03*
Y27000D02*
D03*
X4050D02*
D03*
Y4000D02*
D03*
D27*
X10700Y11250D02*
D03*
X11500D02*
D03*
X12300D02*
D03*
X13100D02*
D03*
X13900D02*
D03*
X14700D02*
D03*
X15500D02*
D03*
X16300D02*
D03*
Y19750D02*
D03*
X15500D02*
D03*
X14700D02*
D03*
X13900D02*
D03*
X13100D02*
D03*
X12300D02*
D03*
X11500D02*
D03*
X10700D02*
D03*
D28*
X17750Y12700D02*
D03*
Y13500D02*
D03*
Y14300D02*
D03*
Y15100D02*
D03*
Y15900D02*
D03*
Y16700D02*
D03*
Y17500D02*
D03*
Y18300D02*
D03*
X9250D02*
D03*
Y17500D02*
D03*
Y16700D02*
D03*
Y15900D02*
D03*
Y15100D02*
D03*
Y14300D02*
D03*
Y13500D02*
D03*
Y12700D02*
D03*
D29*
X500Y9500D02*
X3500D01*
X-2000D02*
X500D01*
X6200Y6800D02*
X10200D01*
X3500Y9500D02*
X6200Y6800D01*
X6910Y7600D02*
X12400D01*
X3010Y11500D02*
X6910Y7600D01*
X14500Y2500D02*
Y4500D01*
Y5500D01*
X12400Y7600D02*
X14500Y5500D01*
X12500Y2500D02*
Y4500D01*
X10200Y6800D02*
X12500Y4500D01*
X-4000Y9500D02*
X-2000D01*
X-4000Y11500D02*
X-2000D01*
X3010D01*
M02*
