M48
;Layer_Color=9474304
;FILE_FORMAT=4:3
METRIC,LZ
;TYPE=PLATED
T1F00S00C0.800
T2F00S00C0.900
T3F00S00C3.000
;TYPE=NON_PLATED
T4F00S00C1.000
%
T01
X0005Y0009
X0007
X0009
X0011
X0013
X0015
Y0011
X0013
X0011
X0009
X0007
X0005
X0003
Y0009
T02
X0005Y0013
X00182Y0012
X00175Y00095
X00241Y00026
X0031Y00055
X0031437Y0007937
X0037Y00085
X0025635Y0017865
X0025095Y0020405
X0023Y00205
X00275Y00225
X0003Y0013
X00225Y0026
Y002854
X002004
X002504
Y0026
X002758
Y002854
X0032Y00285
X0033Y00255
T03
X004595Y0004
X000405
Y0027
X004595
T04
X004585Y001042
X004525Y002058
M30
