M48
;Layer_Color=9474304
;FILE_FORMAT=4:3
METRIC,LZ
;TYPE=PLATED
T1F00S00C0.800
T2F00S00C0.900
T3F00S00C1.400
T4F00S00C3.000
;TYPE=NON_PLATED
T5F00S00C1.000
%
T01
X00125Y00025
X00145
X00165
X00185
X00205
X00225
X00245
Y00045
X00225
X00205
X00185
X00165
X00145
X00125
X-0002Y00095
Y00115
Y00135
Y00155
Y00175
Y00195
Y00215
X-0004
Y00195
Y00175
Y00155
Y00135
Y00115
Y00095
T02
X00455Y00155
X0045595Y0020905
X0034Y0020905
X003515Y0019635
X003154Y002
X003035Y001685
X003285Y00155
X0034Y0013905
X0032785Y0012635
X00275Y0009
X00245
X00225
X00145
X00155Y00075
X0023Y00183
X00215Y002
X0025Y00205
X002485Y001685
X00065Y0018
X00045
X0044Y0008
X00005Y00075
X0Y00135
X-00075Y00075
X002Y00245
T03
X0023146Y0025
X0034854
T04
X004595Y0004
X000405
Y0027
X004595
T05
X005585Y001042
X005525Y002058
M30
